<svg width="100%" height="100%" viewBox="0 0 32 32" fill="none" xmlns="http://www.w3.org/2000/svg">
<path d="M16.5377 7.68808L18.6873 0.404989C18.8834 -0.262164 19.8714 -0.0498884 19.7834 0.640009L18.8004 8.17075C18.7275 8.72671 19.4214 9.03755 19.7834 8.61047L24.696 2.83605C25.146 2.30789 25.9631 2.90429 25.601 3.49815L21.6564 9.97763C21.3648 10.4578 21.8726 11.0238 22.378 10.7812L29.2012 7.51623C29.8247 7.21804 30.3301 8.09747 29.7619 8.49169L23.537 12.7979C23.0769 13.1163 23.3107 13.8416 23.8688 13.8264L31.4237 13.6318C32.1151 13.6141 32.2207 14.625 31.5419 14.7513L24.1127 16.1412C23.5621 16.2448 23.4842 17.0029 23.9995 17.2178L30.9787 20.129C31.6173 20.3943 31.3055 21.3622 30.6317 21.2005L23.283 19.4315C22.74 19.3001 22.3604 19.9622 22.745 20.369L27.9442 25.8832C28.4193 26.3886 27.743 27.1417 27.195 26.7196L21.1963 22.1001C20.7538 21.7589 20.1379 22.2062 20.3264 22.7369L22.8456 29.8987C23.0769 30.5532 22.1542 30.9677 21.8223 30.3561L18.2121 23.6821C17.9456 23.1893 17.2039 23.346 17.1587 23.907L16.5603 31.4807C16.505 32.1731 15.4943 32.1731 15.4415 31.4807L14.8432 23.907C14.7979 23.346 14.0563 23.1893 13.7898 23.6821L10.1795 30.3561C9.85019 30.9677 8.925 30.5532 9.1563 29.8987L11.6754 22.7369C11.8615 22.2062 11.248 21.7589 10.8055 22.1001L4.8069 26.7196C4.25883 27.1417 3.58254 26.3886 4.0577 25.8832L9.25686 20.369C9.64152 19.9622 9.26189 19.3001 8.71884 19.4315L1.37013 21.2005C0.696348 21.3622 0.384601 20.3968 1.02318 20.129L8.00233 17.2178C8.51772 17.0029 8.43978 16.2448 7.88919 16.1412L0.460023 14.7513C-0.221298 14.625 -0.115706 13.6141 0.578186 13.6318L8.13306 13.8264C8.69119 13.8416 8.925 13.1163 8.46492 12.7979L2.24001 8.49169C1.66931 8.09747 2.17464 7.21804 2.80065 7.51623L9.62392 10.7812C10.1293 11.0238 10.6371 10.4552 10.3455 9.97763L6.40084 3.49815C6.03881 2.90429 6.8559 2.30789 7.30592 2.83605L12.2185 8.61047C12.5805 9.03755 13.2744 8.72671 13.2015 8.17075L12.2185 0.640009C12.128 -0.0498884 13.116 -0.259637 13.3146 0.404989L15.4642 7.68808C15.6226 8.22635 16.3818 8.22635 16.5402 7.68808H16.5377Z" fill="CurrentColor"/>
</svg>