<svg width="318" height="318" viewBox="0 0 318 318" fill="none" xmlns="http://www.w3.org/2000/svg">
<circle cx="159" cy="159" r="159" fill="#FFEB69"/>
<path fill-rule="evenodd" clip-rule="evenodd" d="M164.786 82C164.786 79.7909 162.995 78 160.786 78H157.214C155.005 78 153.214 79.7909 153.214 82V135.375C153.214 138.939 148.906 140.723 146.386 138.204L108.644 100.462C107.082 98.8995 104.549 98.8995 102.987 100.462L100.462 102.987C98.8996 104.549 98.8996 107.082 100.462 108.644L138.204 146.386C140.723 148.906 138.939 153.214 135.375 153.214H82C79.7909 153.214 78 155.005 78 157.214V160.786C78 162.995 79.7909 164.786 82 164.786H135.375C138.939 164.786 140.723 169.094 138.204 171.614L100.462 209.356C98.8996 210.918 98.8997 213.451 100.462 215.013L102.987 217.538C104.549 219.1 107.082 219.1 108.644 217.538L146.386 179.796C148.906 177.276 153.214 179.061 153.214 182.624V236C153.214 238.209 155.005 240 157.214 240H160.786C162.995 240 164.786 238.209 164.786 236V182.624C164.786 179.061 169.094 177.276 171.614 179.796L209.356 217.538C210.918 219.1 213.451 219.1 215.013 217.538L217.538 215.013C219.1 213.451 219.1 210.918 217.538 209.356L179.796 171.614C177.276 169.094 179.061 164.786 182.624 164.786H236C238.209 164.786 240 162.995 240 160.786V157.214C240 155.005 238.209 153.214 236 153.214H182.624C179.061 153.214 177.276 148.906 179.796 146.386L217.538 108.644C219.1 107.082 219.1 104.549 217.538 102.987L215.013 100.462C213.451 98.8996 210.918 98.8996 209.356 100.462L171.614 138.204C169.094 140.723 164.786 138.939 164.786 135.375V82Z" fill="#260A2F"/>
<g clip-path="url(#clip0_1126_302)">
<path d="M187.07 33.8201C187.91 34.7101 189.25 35.6101 190.8 36.0201C193.1 36.6301 194.77 35.7701 195.23 34.0101C195.66 32.3801 194.98 31.2001 192.86 29.6801C190.28 27.9201 188.91 25.9801 189.56 23.5201C190.28 20.8001 193.06 19.3801 196.45 20.2801C198.23 20.7501 199.42 21.5101 200.08 22.1501L198.97 23.8201C198.48 23.3601 197.46 22.5301 195.88 22.1201C193.5 21.4901 192.22 22.6701 191.91 23.8601C191.48 25.4901 192.33 26.5701 194.49 28.1401C197.14 30.0601 198.26 31.8801 197.58 34.4401C196.87 37.1301 194.26 38.9301 190.15 37.8401C188.47 37.4001 186.76 36.4201 185.99 35.5501L187.06 33.8101L187.07 33.8201Z" fill="#260A2F"/>
<path d="M210.21 40.5999C209.73 41.8499 209.33 42.9599 209.04 43.9299L207.09 43.1799L207.72 41.1599L207.67 41.1399C206.72 41.8899 204.96 42.6799 202.81 41.8499C200.91 41.1199 199.04 39.1999 200.68 34.9499L203.4 27.8899L205.6 28.7299L203.03 35.4199C202.15 37.7199 202.25 39.5299 204.25 40.2999C205.72 40.8699 207.14 40.2399 207.91 39.4199C208.16 39.1399 208.39 38.7699 208.54 38.3699L211.39 30.9599L213.59 31.7999L210.21 40.5899V40.5999Z" fill="#260A2F"/>
<path d="M212.88 43.1C213.3 43.82 214.18 44.8 215.23 45.33C216.76 46.1 217.86 45.69 218.34 44.74C218.84 43.74 218.52 42.89 217.26 41.53C215.55 39.74 215.15 38.1 215.84 36.72C216.78 34.86 219.05 34.08 221.54 35.33C222.71 35.92 223.57 36.77 224.02 37.48L222.73 38.75C222.42 38.23 221.77 37.43 220.7 36.89C219.46 36.27 218.4 36.63 217.97 37.5C217.49 38.46 217.97 39.23 219.18 40.57C220.8 42.34 221.33 43.86 220.46 45.59C219.44 47.62 217.14 48.26 214.39 46.88C213.12 46.24 212.11 45.34 211.53 44.46L212.86 43.12L212.88 43.1Z" fill="#260A2F"/>
<path d="M232.19 37.3199L230.28 40.5099L233.17 42.2399L232.25 43.7799L229.36 42.0499L225.77 48.0399C224.94 49.4199 224.87 50.4299 225.99 51.0999C226.52 51.4199 226.95 51.5799 227.24 51.6599L226.42 53.2299C225.93 53.1599 225.25 52.8999 224.47 52.4299C223.53 51.8699 222.95 51.1099 222.8 50.2699C222.58 49.3299 222.97 48.2199 223.75 46.9099L227.38 40.8599L225.66 39.8299L226.58 38.2899L228.3 39.3199L229.9 36.6599L232.19 37.3199Z" fill="#260A2F"/>
<path d="M234.23 58.76L235.03 57.33L234.96 57.28C233.78 57.68 232.12 57.61 230.62 56.53C228.49 55 228.49 52.72 229.58 51.2C231.41 48.66 234.67 48.9 238.71 51.85L238.87 51.63C239.5 50.76 240.38 49.03 238.24 47.48C237.26 46.78 236.03 46.34 234.94 46.29L235.41 44.72C236.69 44.78 238.21 45.32 239.53 46.27C242.74 48.58 241.94 51.34 240.43 53.44L237.6 57.37C236.94 58.28 236.35 59.2 235.96 60.01L234.22 58.76H234.23ZM237.81 53.2C235.76 51.66 233.13 50.32 231.66 52.36C230.77 53.6 231.17 54.78 232.15 55.48C233.52 56.47 235.01 56.22 235.96 55.55C236.17 55.4 236.37 55.22 236.51 55.02L237.82 53.2H237.81Z" fill="#260A2F"/>
<path d="M238.46 62.12L246.78 52.2L248.58 53.71L240.26 63.63L238.46 62.12ZM251.13 51.1C250.63 51.73 249.77 51.85 249.05 51.24C248.42 50.71 248.38 49.84 248.89 49.22C249.42 48.58 250.31 48.49 250.96 49.04C251.64 49.61 251.65 50.46 251.12 51.1H251.13Z" fill="#260A2F"/>
<path d="M249.64 59.1801C250.58 58.2301 251.33 57.4301 252.03 56.6101L253.51 58.0801L252.1 59.7001L252.14 59.7401C253.46 59.3201 255.37 59.5101 256.89 61.0201C258.16 62.2801 259.39 65.0001 256.27 68.1501L250.84 73.6501L249.17 72.0001L254.42 66.6901C255.89 65.2101 256.56 63.4201 254.98 61.8601C253.88 60.7701 252.25 60.7001 251.04 61.3501C250.76 61.4801 250.44 61.7301 250.16 62.0201L244.69 67.5601L243.02 65.9101L249.66 59.1901L249.64 59.1801Z" fill="#260A2F"/>
<path d="M257.6 81.72L258.75 80.54L258.7 80.4799C257.46 80.5599 255.87 80.06 254.7 78.63C253.04 76.6 253.62 74.3999 255.08 73.2099C257.5 71.2299 260.59 72.2999 263.73 76.1899L263.94 76.02C264.77 75.34 266.07 73.8999 264.4 71.8499C263.64 70.9199 262.55 70.1799 261.52 69.8499L262.38 68.45C263.6 68.84 264.93 69.75 265.96 71.02C268.46 74.09 266.98 76.54 264.97 78.18L261.22 81.2399C260.35 81.9499 259.53 82.69 258.95 83.37L257.6 81.7099V81.72ZM262.5 77.27C260.92 75.25 258.72 73.2799 256.77 74.8699C255.59 75.8299 255.67 77.0799 256.43 78.0099C257.5 79.3199 259 79.47 260.09 79.06C260.33 78.97 260.57 78.8399 260.75 78.6899L262.49 77.27H262.5Z" fill="#260A2F"/>
<path d="M260.77 85.77C261.54 85.33 262.67 84.66 263.63 84.04L276.75 75.51L278.02 77.46L271.2 81.89L271.23 81.93C272.89 81.84 274.5 82.58 275.63 84.33C277.38 87.02 276.38 90.39 273.07 92.51C269.19 95.03 265.67 93.84 264.1 91.42C263.08 89.85 262.87 88.2 263.78 86.46L263.74 86.39L261.89 87.47L260.78 85.77H260.77ZM266.45 84.98C266.2 85.14 265.99 85.35 265.79 85.54C264.67 86.81 264.47 88.57 265.41 90C266.75 92.06 269.24 92.2 271.73 90.58C273.91 89.16 275.04 86.83 273.67 84.72C272.79 83.37 271.06 82.72 269.29 83.29C269.04 83.39 268.72 83.5 268.41 83.7L266.46 84.97L266.45 84.98Z" fill="#260A2F"/>
<path d="M285.37 89.49L286.49 91.56L269.76 100.55L268.65 98.48L285.38 89.49H285.37Z" fill="#260A2F"/>
<path d="M277.53 102.5C274.64 103.84 274.27 106.23 275.22 108.38C275.9 109.92 276.58 110.73 277.28 111.39L275.9 112.44C275.22 111.83 274.26 110.71 273.42 108.83C271.81 105.19 273.24 101.95 276.81 100.37C280.38 98.7901 284.13 99.6501 285.65 103.09C287.36 106.95 284.42 109.49 282.24 110.45C281.8 110.64 281.44 110.75 281.2 110.82L277.52 102.5H277.53ZM281.87 108.13C283.25 107.55 285.12 106.02 284.05 103.6C283.09 101.42 280.66 101.36 279.09 101.85L281.87 108.14V108.13Z" fill="#260A2F"/>
<path d="M278.33 120.72C279.2 120.54 280.48 120.26 281.59 119.96L296.71 115.92L297.31 118.17L289.45 120.27V120.32C291.07 120.75 292.37 121.95 292.91 123.97C293.74 127.07 291.74 129.96 287.94 130.95C283.47 132.15 280.49 129.92 279.74 127.13C279.26 125.32 279.57 123.69 280.97 122.31L280.95 122.23L278.85 122.68L278.32 120.72H278.33ZM283.97 121.73C283.69 121.81 283.42 121.93 283.17 122.05C281.71 122.91 280.98 124.52 281.42 126.17C282.06 128.55 284.37 129.45 287.24 128.68C289.75 128.01 291.55 126.14 290.9 123.71C290.48 122.16 289.04 121 287.18 120.99C286.91 121.01 286.58 121.01 286.22 121.11L283.97 121.71V121.73Z" fill="#260A2F"/>
<path d="M287.01 145.31C285.69 145.5 284.53 145.7 283.53 145.93L283.23 143.87L285.3 143.43V143.38C284.17 142.92 282.62 141.77 282.29 139.49C282 137.48 282.76 134.91 287.26 134.25L294.75 133.16L295.09 135.49L287.99 136.52C285.55 136.87 284.02 137.86 284.33 139.97C284.56 141.53 285.8 142.46 286.9 142.73C287.26 142.81 287.7 142.83 288.12 142.77L295.98 141.62L296.32 143.95L287 145.31H287.01Z" fill="#260A2F"/>
<path d="M286.14 148.86C285.72 149.58 285.3 150.83 285.35 152C285.43 153.71 286.32 154.47 287.39 154.42C288.51 154.37 289.1 153.67 289.65 151.9C290.37 149.54 291.6 148.38 293.15 148.31C295.23 148.21 297.02 149.81 297.15 152.59C297.21 153.9 296.89 155.07 296.5 155.81L294.76 155.3C295.06 154.78 295.44 153.82 295.38 152.62C295.31 151.23 294.48 150.49 293.51 150.54C292.44 150.59 292 151.39 291.44 153.1C290.69 155.38 289.62 156.59 287.7 156.68C285.43 156.79 283.74 155.1 283.6 152.03C283.53 150.61 283.82 149.29 284.31 148.35L286.13 148.85L286.14 148.86Z" fill="#260A2F"/>
<path d="M284.06 159.59L297.01 159.8L296.97 162.15L284.02 161.94L284.06 159.59ZM300.6 162.49C299.8 162.5 299.16 161.9 299.18 160.97C299.19 160.14 299.85 159.56 300.65 159.58C301.48 159.59 302.11 160.22 302.1 161.08C302.09 161.96 301.43 162.51 300.6 162.5V162.49Z" fill="#260A2F"/>
<path d="M293.39 166.43C294.72 166.56 295.82 166.64 296.89 166.66L296.69 168.74L294.55 168.67V168.72C295.71 169.48 296.76 171.09 296.55 173.22C296.38 175 295.04 177.67 290.62 177.24L282.93 176.49L283.16 174.15L290.59 174.87C292.67 175.07 294.47 174.47 294.69 172.26C294.84 170.72 293.87 169.41 292.6 168.88C292.32 168.74 291.92 168.65 291.52 168.61L283.77 167.86L284 165.52L293.4 166.44L293.39 166.43Z" fill="#260A2F"/>
<path d="M288.02 182.31C284.89 181.71 283.19 183.43 282.71 185.73C282.36 187.38 282.44 188.44 282.63 189.38L280.9 189.43C280.7 188.54 280.58 187.07 281 185.05C281.82 181.15 284.87 179.36 288.7 180.16C292.52 180.96 295.06 183.85 294.29 187.54C293.42 191.68 289.55 192.01 287.22 191.52C286.75 191.42 286.39 191.29 286.16 191.22L288.03 182.32L288.02 182.31ZM288.25 189.41C289.71 189.74 292.12 189.59 292.67 187C293.16 184.67 291.23 183.2 289.67 182.68L288.26 189.41H288.25Z" fill="#260A2F"/>
<path d="M281.88 192.84C281.24 193.37 280.42 194.4 280.07 195.53C279.56 197.17 280.15 198.19 281.17 198.5C282.24 198.83 283.03 198.38 284.16 196.9C285.64 194.92 287.19 194.25 288.67 194.71C290.66 195.33 291.8 197.44 290.98 200.1C290.59 201.35 289.9 202.34 289.27 202.9L287.81 201.83C288.27 201.44 288.95 200.67 289.31 199.52C289.72 198.19 289.18 197.21 288.26 196.93C287.24 196.61 286.55 197.21 285.44 198.63C283.96 200.52 282.54 201.29 280.7 200.72C278.53 200.05 277.52 197.89 278.42 194.95C278.84 193.6 279.56 192.45 280.34 191.74L281.88 192.83V192.84Z" fill="#260A2F"/>
<path d="M278.68 202.78C278 203.26 277.09 204.22 276.65 205.31C276.01 206.9 276.51 207.96 277.5 208.36C278.54 208.78 279.36 208.39 280.61 207.01C282.25 205.16 283.85 204.62 285.29 205.2C287.23 205.98 288.19 208.18 287.15 210.76C286.66 211.98 285.88 212.9 285.22 213.42L283.85 212.23C284.34 211.88 285.08 211.17 285.53 210.05C286.05 208.76 285.59 207.74 284.7 207.38C283.71 206.98 282.97 207.52 281.75 208.85C280.12 210.62 278.65 211.26 276.86 210.55C274.75 209.7 273.92 207.46 275.07 204.61C275.6 203.29 276.41 202.21 277.25 201.56L278.69 202.77L278.68 202.78Z" fill="#260A2F"/>
<path d="M280.85 235.71L267.32 227.85C266.32 227.27 265.18 226.64 264.37 226.26L265.43 224.43L267.43 225.47L267.46 225.42C266.57 224.07 266.42 222.15 267.48 220.33C269.05 217.62 272.55 216.87 275.95 218.84C279.69 220.98 280.64 224.62 279.05 227.35C278.06 229.06 276.58 229.75 275.38 229.73L275.35 229.78L282.04 233.66L280.86 235.7L280.85 235.71ZM272.25 227.99C272.5 228.14 272.87 228.32 273.16 228.39C274.63 228.84 276.34 228.35 277.22 226.82C278.44 224.71 277.32 222.39 274.84 220.95C272.57 219.63 270.05 219.66 268.78 221.85C267.99 223.21 268.16 224.99 269.48 226.24C269.72 226.47 269.98 226.66 270.31 226.84L272.25 227.97V227.99Z" fill="#260A2F"/>
<path d="M266.6 233.64C264.01 231.79 261.74 232.65 260.35 234.55C259.35 235.91 258.98 236.9 258.76 237.83L257.17 237.15C257.36 236.26 257.86 234.86 259.08 233.21C261.45 230 264.97 229.64 268.11 231.96C271.25 234.28 272.36 237.96 270.12 240.99C267.61 244.39 263.95 243.09 262.03 241.67C261.64 241.38 261.37 241.12 261.2 240.95L266.6 233.63V233.64ZM263.86 240.2C265.05 241.11 267.3 241.98 268.88 239.84C270.29 237.92 269.15 235.78 267.95 234.66L263.87 240.19L263.86 240.2Z" fill="#260A2F"/>
<path d="M263.63 248.7L256.54 245.69C255.38 245.22 254.35 244.75 253.38 244.23L253.33 244.29C253.92 245.23 254.46 246.22 255.05 247.33L258.75 254.08L257.1 255.9L250.93 243.44L252.44 241.78L265.33 246.84L263.64 248.7H263.63Z" fill="#260A2F"/>
<path d="M249.46 253.6C247.28 251.28 244.9 251.67 243.15 253.25C241.9 254.38 241.34 255.28 240.94 256.15L239.51 255.17C239.87 254.34 240.64 253.07 242.17 251.69C245.13 249.02 248.65 249.36 251.27 252.26C253.89 255.16 254.25 258.98 251.45 261.51C248.32 264.34 244.99 262.34 243.39 260.58C243.07 260.22 242.85 259.91 242.71 259.71L249.46 253.61V253.6ZM245.47 259.48C246.45 260.61 248.49 261.9 250.46 260.13C252.23 258.53 251.53 256.21 250.57 254.87L245.47 259.48Z" fill="#260A2F"/>
<path d="M248.15 271.81L246.29 273.25L234.65 258.23L236.51 256.79L248.15 271.81Z" fill="#260A2F"/>
<path d="M225.6 272.38C222.98 268.37 224.62 264.81 227.24 263.1C230.17 261.18 233.84 261.86 236.08 265.29C238.45 268.92 237.46 272.6 234.46 274.55C231.35 276.58 227.76 275.69 225.6 272.38ZM234.13 266.65C232.58 264.28 230.05 263.38 228.12 264.63C226.24 265.86 225.98 268.55 227.58 270.99C228.78 272.83 231.22 274.56 233.55 273.04C235.88 271.52 235.48 268.71 234.14 266.65H234.13Z" fill="#260A2F"/>
<path d="M223.73 275.87C224.47 277.35 225.12 278.53 225.71 279.61L223.82 280.55L222.73 278.61L222.68 278.63C222.52 280.47 221.58 281.99 219.68 282.94C216.88 284.34 213.59 283.02 211.83 279.5C209.75 275.33 211.26 272.01 213.99 270.65C215.52 269.89 217.2 269.89 218.47 270.69L218.52 270.67L215.38 264.37L217.46 263.33L223.72 275.87H223.73ZM220.11 273.82C219.95 273.51 219.76 273.25 219.58 273.01C218.47 271.74 216.7 271.37 215.19 272.12C212.96 273.23 212.58 275.7 213.9 278.35C215.06 280.67 217.27 282.05 219.5 280.94C220.94 280.22 221.76 278.52 221.38 276.74C221.32 276.44 221.24 276.09 221.09 275.81L220.1 273.82H220.11Z" fill="#260A2F"/>
<path d="M209.71 283.58C210.13 284.85 210.49 285.88 210.9 286.88L208.94 287.52L208.19 285.57L208.11 285.6C207.81 286.99 207.02 288.46 204.99 289.13C203.31 289.68 201.71 289.08 200.7 287.8L200.65 287.82C200.49 288.63 200.19 289.32 199.8 289.87C199.25 290.67 198.53 291.24 197.36 291.63C195.73 292.16 192.97 291.89 191.57 287.62L189.19 280.37L191.38 279.65L193.66 286.62C194.44 288.98 195.77 290.12 197.57 289.53C198.84 289.11 199.52 287.85 199.55 286.63C199.55 286.29 199.49 285.86 199.36 285.45L196.87 277.85L199.06 277.13L201.48 284.5C202.12 286.46 203.45 287.6 205.16 287.04C206.56 286.58 207.21 285.13 207.2 283.9C207.22 283.53 207.14 283.13 207.02 282.75L204.59 275.33L206.78 274.61L209.72 283.58H209.71Z" fill="#260A2F"/>
<path d="M185.78 287.03C185.16 283.91 182.93 282.98 180.62 283.39C178.96 283.69 178.01 284.16 177.21 284.68L176.52 283.09C177.27 282.57 178.59 281.9 180.62 281.54C184.54 280.84 187.35 282.99 188.04 286.84C188.73 290.69 187.01 294.12 183.3 294.78C179.14 295.53 177.38 292.07 176.96 289.73C176.88 289.26 176.86 288.88 176.84 288.64L185.79 287.03H185.78ZM179.29 289.91C179.53 291.39 180.57 293.57 183.18 293.1C185.52 292.68 186.16 290.34 186.06 288.7L179.3 289.92L179.29 289.91Z" fill="#260A2F"/>
<path d="M173.89 292.41C173.98 293.74 174.09 294.84 174.24 295.9L172.16 296.04L171.88 293.91H171.83C171.27 295.19 169.86 296.49 167.73 296.64C165.94 296.76 163.09 295.89 162.79 291.46L162.26 283.75L164.61 283.59L165.12 291.04C165.26 293.12 166.16 294.8 168.37 294.65C169.92 294.54 171.04 293.37 171.35 292.03C171.44 291.73 171.46 291.32 171.43 290.92L170.89 283.15L173.24 282.99L173.89 292.41Z" fill="#260A2F"/>
<path d="M155.75 300.3L155.83 296.58L152.46 296.51L152.5 294.72L155.87 294.79L156.01 287.81C156.04 286.21 155.61 285.29 154.3 285.26C153.68 285.25 153.23 285.32 152.93 285.39L152.86 283.62C153.32 283.44 154.04 283.32 154.95 283.34C156.05 283.36 156.92 283.73 157.47 284.38C158.12 285.09 158.34 286.24 158.31 287.77L158.16 294.83L160.17 294.87L160.13 296.66L158.12 296.62L158.06 299.72L155.75 300.29V300.3Z" fill="#260A2F"/>
<path d="M145.26 284.32C145.14 285.3 144.4 285.91 143.47 285.8C142.54 285.69 141.99 284.92 142.1 283.94C142.21 282.98 142.91 282.34 143.89 282.46C144.82 282.57 145.37 283.36 145.26 284.32Z" fill="#260A2F"/>
<path d="M133.85 284.11C132.99 283.24 131.63 282.37 130.07 281.99C127.75 281.43 126.11 282.33 125.68 284.1C125.29 285.74 126 286.9 128.15 288.38C130.77 290.08 132.18 291.99 131.59 294.46C130.93 297.19 128.18 298.68 124.78 297.86C122.98 297.43 121.78 296.7 121.11 296.07L122.18 294.37C122.68 294.82 123.72 295.62 125.31 296C127.7 296.57 128.96 295.36 129.24 294.17C129.63 292.53 128.76 291.47 126.57 289.95C123.88 288.09 122.71 286.3 123.33 283.73C123.98 281.02 126.54 279.16 130.68 280.16C132.37 280.57 134.1 281.5 134.89 282.35L133.86 284.11H133.85Z" fill="#260A2F"/>
<path d="M110.55 277.85C111 276.59 111.37 275.47 111.64 274.49L113.6 275.2L113.01 277.23L113.06 277.25C113.99 276.48 115.74 275.65 117.9 276.43C119.81 277.12 121.73 279 120.19 283.28L117.63 290.4L115.41 289.61L117.83 282.86C118.66 280.54 118.52 278.73 116.5 278.01C115.01 277.48 113.61 278.14 112.86 278.98C112.62 279.26 112.4 279.64 112.25 280.04L109.57 287.52L107.35 286.73L110.53 277.87L110.55 277.85Z" fill="#260A2F"/>
<path d="M107.82 275.42C107.39 274.71 106.48 273.75 105.42 273.24C103.87 272.51 102.78 272.94 102.32 273.9C101.84 274.92 102.18 275.76 103.48 277.08C105.23 278.83 105.67 280.46 105 281.86C104.11 283.74 101.85 284.57 99.3401 283.38C98.1601 282.82 97.2801 281.99 96.8101 281.29L98.0801 280C98.4001 280.51 99.0601 281.3 100.15 281.81C101.41 282.41 102.45 282.01 102.86 281.14C103.32 280.17 102.82 279.41 101.58 278.1C99.9201 276.36 99.3601 274.86 100.18 273.12C101.15 271.07 103.44 270.37 106.22 271.69C107.5 272.3 108.54 273.17 109.13 274.05L107.83 275.42H107.82Z" fill="#260A2F"/>
<path d="M88.66 281.63L90.4999 278.4L87.5699 276.73L88.4599 275.17L91.3899 276.84L94.8499 270.77C95.6399 269.38 95.6999 268.36 94.5599 267.71C94.0299 267.41 93.5899 267.25 93.2999 267.17L94.0799 265.58C94.5699 265.64 95.2599 265.88 96.0499 266.33C96.9999 266.87 97.5999 267.61 97.7699 268.45C98.0099 269.39 97.6499 270.5 96.8899 271.83L93.3899 277.96L95.1299 278.95L94.2399 280.51L92.4999 279.52L90.9599 282.22L88.66 281.62V281.63Z" fill="#260A2F"/>
<path d="M86.12 260.24L85.35 261.69L85.42 261.74C86.59 261.31 88.25 261.35 89.77 262.39C91.93 263.88 91.99 266.15 90.93 267.7C89.16 270.28 85.89 270.12 81.79 267.26L81.64 267.48C81.03 268.36 80.19 270.12 82.37 271.62C83.36 272.3 84.61 272.71 85.69 272.74L85.25 274.32C83.97 274.29 82.44 273.78 81.09 272.86C77.83 270.62 78.56 267.85 80.03 265.71L82.77 261.72C83.41 260.79 83.98 259.86 84.35 259.04L86.11 260.25L86.12 260.24ZM82.66 265.88C84.75 267.38 87.41 268.66 88.83 266.58C89.69 265.32 89.27 264.15 88.27 263.47C86.88 262.52 85.39 262.79 84.46 263.48C84.26 263.63 84.06 263.82 83.93 264.02L82.66 265.87V265.88Z" fill="#260A2F"/>
<path d="M69.4 268.27C69.88 267.63 70.74 267.49 71.47 268.08C72.12 268.6 72.17 269.47 71.67 270.09C71.15 270.74 70.27 270.85 69.6 270.32C68.91 269.77 68.87 268.91 69.39 268.27H69.4ZM81.82 256.97L73.72 267.07L71.88 265.6L79.98 255.5L81.82 256.97Z" fill="#260A2F"/>
<path d="M70.71 260.16C69.79 261.13 69.06 261.95 68.38 262.78L66.86 261.35L68.23 259.7L68.19 259.66C66.88 260.11 64.96 259.96 63.41 258.49C62.11 257.26 60.82 254.57 63.87 251.34L69.18 245.72L70.89 247.34L65.76 252.76C64.33 254.28 63.7 256.07 65.31 257.6C66.44 258.67 68.07 258.69 69.26 258.02C69.54 257.88 69.85 257.63 70.13 257.33L75.48 251.67L77.19 253.29L70.7 260.15L70.71 260.16Z" fill="#260A2F"/>
<path d="M62.25 237.8L61.13 239L61.18 239.06C62.42 238.95 64.02 239.42 65.22 240.82C66.92 242.81 66.39 245.03 64.96 246.25C62.58 248.28 59.47 247.28 56.24 243.46L56.04 243.63C55.23 244.33 53.95 245.8 55.67 247.81C56.45 248.73 57.55 249.44 58.59 249.75L57.76 251.17C56.54 250.81 55.18 249.92 54.12 248.68C51.55 245.67 52.98 243.18 54.95 241.5L58.63 238.35C59.48 237.62 60.28 236.87 60.85 236.17L62.24 237.8H62.25ZM57.45 242.36C59.08 244.35 61.32 246.27 63.23 244.64C64.39 243.65 64.28 242.41 63.5 241.49C62.41 240.21 60.9 240.09 59.82 240.52C59.58 240.62 59.35 240.75 59.16 240.9L57.45 242.36Z" fill="#260A2F"/>
<path d="M58.9999 233.82C58.2399 234.27 57.1299 234.97 56.1799 235.62L43.2499 244.44L41.9399 242.52L48.6599 237.94L48.6299 237.9C46.9699 238.03 45.3499 237.32 44.1799 235.6C42.3699 232.95 43.2999 229.56 46.5599 227.37C50.3799 224.76 53.9299 225.87 55.5499 228.26C56.6099 229.81 56.8499 231.45 55.9799 233.21L56.0299 233.28L57.8599 232.16L59.0099 233.84L58.9999 233.82ZM53.3399 234.73C53.5799 234.56 53.7999 234.35 53.9899 234.16C55.0799 232.87 55.2399 231.11 54.2799 229.69C52.8899 227.66 50.4099 227.57 47.9499 229.25C45.8099 230.71 44.7299 233.07 46.1399 235.15C47.0399 236.48 48.7899 237.1 50.5499 236.48C50.7999 236.37 51.1099 236.26 51.4199 236.05L53.3399 234.74V234.73Z" fill="#260A2F"/>
<path d="M34.31 230.65L33.15 228.6L49.67 219.23L50.83 221.28L34.31 230.65Z" fill="#260A2F"/>
<path d="M41.86 217.48C44.72 216.08 45.04 213.68 44.04 211.55C43.32 210.03 42.62 209.23 41.91 208.59L43.26 207.51C43.95 208.1 44.94 209.2 45.82 211.06C47.52 214.67 46.16 217.94 42.62 219.6C39.09 221.26 35.33 220.49 33.72 217.08C31.92 213.26 34.81 210.66 36.96 209.64C37.4 209.43 37.76 209.32 37.99 209.25L41.86 217.48ZM37.4 211.95C36.03 212.56 34.2 214.13 35.33 216.53C36.34 218.68 38.77 218.69 40.33 218.17L37.4 211.95Z" fill="#260A2F"/>
<path d="M40.66 199.28C39.8 199.48 38.52 199.79 37.42 200.11L22.4 204.49L21.75 202.26L29.56 199.98L29.54 199.93C27.92 199.54 26.6 198.36 26.02 196.36C25.12 193.28 27.05 190.35 30.83 189.27C35.27 187.97 38.3 190.13 39.11 192.9C39.63 194.7 39.36 196.34 37.99 197.74L38.01 197.82L40.09 197.32L40.66 199.27V199.28ZM35 198.4C35.28 198.32 35.55 198.18 35.79 198.06C37.23 197.17 37.93 195.54 37.45 193.9C36.76 191.54 34.42 190.69 31.57 191.52C29.08 192.25 27.32 194.15 28.03 196.57C28.48 198.11 29.95 199.24 31.81 199.2C32.08 199.18 32.41 199.16 32.77 199.06L35 198.41V198.4Z" fill="#260A2F"/>
<path d="M31.43 174.91C32.75 174.69 33.91 174.46 34.89 174.22L35.24 176.28L33.18 176.76V176.81C34.32 177.24 35.89 178.36 36.28 180.63C36.62 182.63 35.92 185.22 31.43 185.98L23.96 187.24L23.57 184.92L30.64 183.73C33.07 183.32 34.58 182.31 34.22 180.19C33.96 178.63 32.69 177.73 31.59 177.49C31.22 177.42 30.79 177.41 30.37 177.48L22.53 178.8L22.14 176.48L31.43 174.91Z" fill="#260A2F"/>
<path d="M32.22 171.34C32.63 170.61 33.02 169.35 32.94 168.18C32.82 166.47 31.91 165.73 30.84 165.8C29.72 165.88 29.15 166.59 28.63 168.37C27.96 170.75 26.76 171.93 25.21 172.04C23.13 172.18 21.3 170.62 21.11 167.85C21.02 166.54 21.31 165.37 21.69 164.62L23.44 165.09C23.16 165.62 22.79 166.58 22.88 167.78C22.98 169.17 23.83 169.89 24.79 169.82C25.86 169.75 26.28 168.94 26.81 167.21C27.51 164.91 28.55 163.68 30.47 163.55C32.74 163.39 34.46 165.04 34.68 168.11C34.78 169.52 34.52 170.86 34.05 171.8L32.22 171.34Z" fill="#260A2F"/>
<path d="M17.4499 158.17C18.2499 158.13 18.8999 158.71 18.9199 159.64C18.9299 160.47 18.2999 161.07 17.4999 161.08C16.6699 161.09 16.0199 160.49 16.0099 159.63C15.9999 158.75 16.6299 158.18 17.4599 158.16L17.4499 158.17ZM34.0799 160.53L21.1299 160.74L21.0899 158.39L34.0399 158.18L34.0799 160.53Z" fill="#260A2F"/>
<path d="M24.58 153.95C23.25 153.85 22.15 153.79 21.08 153.79L21.24 151.71L23.38 151.74V151.69C22.2 150.96 21.12 149.37 21.28 147.24C21.41 145.45 22.69 142.76 27.12 143.09L34.83 143.67L34.65 146.02L27.21 145.46C25.13 145.3 23.34 145.95 23.17 148.16C23.05 149.71 24.06 150.99 25.33 151.49C25.62 151.62 26.01 151.7 26.41 151.73L34.17 152.31L33.99 154.66L24.57 153.95H24.58Z" fill="#260A2F"/>
<path d="M29.5901 137.95C32.7301 138.48 34.3901 136.72 34.8201 134.4C35.1301 132.74 35.0201 131.69 34.8201 130.75L36.5501 130.66C36.7701 131.54 36.9301 133.02 36.5501 135.04C35.8201 138.96 32.8101 140.82 28.9701 140.11C25.1301 139.4 22.5201 136.57 23.2101 132.86C23.9801 128.7 27.8401 128.28 30.1801 128.71C30.6501 128.8 31.0101 128.92 31.2401 128.99L29.5801 137.93L29.5901 137.95ZM29.1901 130.86C27.7201 130.56 25.3201 130.77 24.8301 133.37C24.4001 135.71 26.3601 137.14 27.9301 137.62L29.1801 130.86H29.1901Z" fill="#260A2F"/>
<path d="M35.5 127.25C36.13 126.71 36.93 125.65 37.25 124.52C37.72 122.87 37.12 121.87 36.09 121.57C35.01 121.26 34.23 121.74 33.14 123.23C31.7 125.24 30.17 125.94 28.68 125.52C26.67 124.95 25.49 122.86 26.25 120.18C26.61 118.92 27.28 117.92 27.89 117.34L29.38 118.37C28.93 118.77 28.26 119.55 27.93 120.71C27.55 122.05 28.11 123.01 29.03 123.28C30.06 123.57 30.73 122.96 31.81 121.51C33.25 119.58 34.64 118.78 36.5 119.31C38.69 119.93 39.75 122.07 38.9 125.03C38.51 126.39 37.82 127.56 37.05 128.29L35.49 127.23L35.5 127.25Z" fill="#260A2F"/>
<path d="M38.4699 117.27C39.1399 116.78 40.0199 115.8 40.4399 114.69C41.04 113.09 40.5199 112.03 39.5199 111.66C38.4699 111.26 37.66 111.67 36.4399 113.08C34.84 114.97 33.2599 115.54 31.7999 115C29.8499 114.27 28.8399 112.09 29.8199 109.48C30.2799 108.25 31.0399 107.31 31.6899 106.78L33.0899 107.93C32.6099 108.29 31.8799 109.02 31.4599 110.15C30.9699 111.45 31.4499 112.46 32.3499 112.8C33.3499 113.18 34.0799 112.62 35.2699 111.27C36.86 109.47 38.32 108.79 40.12 109.46C42.25 110.26 43.1299 112.48 42.0499 115.36C41.5499 116.69 40.7599 117.79 39.9399 118.45L38.4699 117.27Z" fill="#260A2F"/>
<path d="M35.55 84.3799L49.26 91.9299C50.27 92.4899 51.43 93.0899 52.24 93.4499L51.22 95.2999L49.2 94.3099L49.17 94.3599C50.09 95.6899 50.29 97.5999 49.27 99.4499C47.76 102.19 44.28 103.02 40.83 101.13C37.04 99.0799 36.01 95.4499 37.54 92.6899C38.5 90.9599 39.96 90.2399 41.16 90.2199L41.19 90.1699L34.42 86.4399L35.56 84.3799H35.55ZM44.33 91.8999C44.07 91.7599 43.71 91.5899 43.41 91.5199C41.93 91.0999 40.23 91.6299 39.38 93.1799C38.21 95.3099 39.38 97.6099 41.89 98.9899C44.19 100.26 46.7 100.18 47.93 97.9499C48.69 96.5699 48.47 94.7999 47.13 93.5699C46.89 93.3399 46.62 93.1699 46.29 92.9899L44.32 91.9099L44.33 91.8999Z" fill="#260A2F"/>
<path d="M49.85 86.1201C52.48 87.9101 54.72 87.0001 56.08 85.0801C57.05 83.7001 57.39 82.7001 57.6 81.7701L59.21 82.4101C59.04 83.3001 58.57 84.7101 57.39 86.3901C55.1 89.6501 51.58 90.0901 48.39 87.8401C45.2 85.5901 44.01 81.9401 46.18 78.8601C48.61 75.4101 52.3 76.6301 54.24 78.0001C54.63 78.2801 54.91 78.5401 55.09 78.7001L49.86 86.1301L49.85 86.1201ZM52.44 79.5101C51.23 78.6301 48.96 77.8101 47.44 79.9801C46.07 81.9301 47.26 84.0401 48.49 85.1301L52.45 79.5101H52.44Z" fill="#260A2F"/>
<path d="M52.48 71.0099L59.64 73.8599C60.81 74.3099 61.85 74.7499 62.83 75.2499L62.88 75.1899C62.26 74.2699 61.7 73.2799 61.09 72.1899L57.24 65.5199L58.85 63.6599L65.3 75.9799L63.83 77.6799L50.83 72.9099L52.48 71.0099Z" fill="#260A2F"/>
<path d="M66.53 65.8001C68.76 68.0801 71.13 67.6301 72.85 66.0101C74.07 64.8501 74.61 63.9401 75 63.0601L76.45 64.0101C76.1 64.8501 75.37 66.1401 73.87 67.5501C70.97 70.2901 67.44 70.0201 64.76 67.1801C62.08 64.3401 61.63 60.5201 64.37 57.9301C67.44 55.0201 70.81 56.9501 72.45 58.6801C72.78 59.0301 73 59.3401 73.15 59.5301L66.54 65.7801L66.53 65.8001ZM70.39 59.8301C69.38 58.7201 67.31 57.4701 65.39 59.2901C63.66 60.9301 64.41 63.2401 65.39 64.5501L70.39 59.8201V59.8301Z" fill="#260A2F"/>
<path d="M67.4301 47.5701L69.2601 46.0901L81.2301 60.8301L79.4001 62.3101L67.4301 47.5701Z" fill="#260A2F"/>
<path d="M89.9601 46.49C92.6701 50.44 91.1101 54.04 88.5301 55.8C85.6401 57.78 81.9601 57.19 79.6501 53.81C77.2001 50.24 78.1001 46.54 81.0601 44.51C84.1301 42.41 87.7301 43.22 89.9701 46.48L89.9601 46.49ZM81.5601 52.41C83.1601 54.75 85.7201 55.59 87.6201 54.29C89.4701 53.02 89.6701 50.32 88.0201 47.92C86.7801 46.11 84.3001 44.44 82.0101 46.01C79.7201 47.58 80.1701 50.38 81.5701 52.41H81.5601Z" fill="#260A2F"/>
<path d="M91.77 42.94C91 41.47 90.32 40.31 89.7 39.25L91.57 38.26L92.7 40.17L92.75 40.14C92.87 38.29 93.78 36.75 95.65 35.77C98.42 34.31 101.74 35.55 103.57 39.03C105.74 43.15 104.31 46.51 101.61 47.93C100.1 48.73 98.42 48.77 97.13 47.99L97.08 48.02L100.36 54.24L98.3 55.33L91.76 42.93L91.77 42.94ZM95.44 44.91C95.6 45.22 95.8 45.48 95.98 45.71C97.12 46.95 98.9 47.29 100.39 46.5C102.59 45.34 102.92 42.87 101.54 40.24C100.33 37.94 98.09 36.62 95.89 37.78C94.47 38.53 93.68 40.25 94.1 42.02C94.17 42.32 94.26 42.66 94.41 42.95L95.45 44.91H95.44Z" fill="#260A2F"/>
<path d="M105.6 34.9301C105.15 33.6701 104.76 32.6401 104.33 31.6601L106.27 30.9701L107.07 32.9001L107.15 32.8701C107.42 31.4701 108.17 29.9801 110.19 29.2701C111.86 28.6801 113.47 29.2501 114.51 30.5001L114.56 30.4801C114.7 29.6701 114.99 28.9701 115.36 28.4101C115.9 27.6001 116.6 27.0101 117.76 26.6001C119.37 26.0301 122.14 26.2401 123.64 30.4801L126.18 37.6701L124.01 38.4401L121.57 31.5301C120.74 29.1801 119.38 28.0701 117.59 28.7101C116.33 29.1601 115.67 30.4401 115.68 31.6501C115.68 31.9901 115.75 32.4201 115.9 32.8201L118.56 40.3601L116.39 41.1301L113.81 33.8201C113.12 31.8801 111.77 30.7701 110.08 31.3701C108.69 31.8601 108.08 33.3301 108.11 34.5601C108.1 34.9301 108.18 35.3301 108.32 35.7101L110.92 43.0701L108.75 43.8401L105.6 34.9401V34.9301Z" fill="#260A2F"/>
<path d="M129.46 30.9299C130.15 34.0399 132.4 34.9199 134.71 34.4499C136.36 34.1099 137.3 33.6199 138.09 33.0799L138.82 34.6499C138.08 35.1799 136.78 35.8799 134.76 36.2899C130.85 37.0799 128 34.9899 127.22 31.1599C126.44 27.3299 128.08 23.8599 131.78 23.1099C135.92 22.2699 137.76 25.6899 138.24 28.0199C138.34 28.4899 138.36 28.8699 138.38 29.1099L129.47 30.9199L129.46 30.9299ZM135.89 27.8999C135.62 26.4299 134.53 24.2699 131.93 24.7999C129.6 25.2699 129.01 27.6299 129.15 29.2699L135.89 27.8999Z" fill="#260A2F"/>
<path d="M141.22 25.2899C141.1 23.9599 140.97 22.8699 140.79 21.8099L142.87 21.6199L143.2 23.7399H143.25C143.78 22.4499 145.16 21.1199 147.29 20.9199C149.07 20.7599 151.94 21.5699 152.35 25.9899L153.06 33.6899L150.72 33.8999L150.04 26.4699C149.85 24.3899 148.92 22.7299 146.71 22.9299C145.17 23.0699 144.07 24.2699 143.79 25.6199C143.71 25.9199 143.69 26.3299 143.73 26.7299L144.44 34.4799L142.1 34.6899L141.24 25.2899H141.22Z" fill="#260A2F"/>
<path d="M158.92 17L158.98 20.72L162.35 20.67L162.38 22.46L159.01 22.51L159.12 29.49C159.15 31.09 159.62 32 160.93 31.98C161.55 31.98 162 31.88 162.29 31.8L162.42 33.56C161.97 33.75 161.25 33.9 160.34 33.91C159.24 33.93 158.36 33.59 157.78 32.96C157.1 32.27 156.84 31.13 156.82 29.6L156.71 22.54L154.7 22.57L154.67 20.78L156.68 20.75L156.63 17.65L158.92 17Z" fill="#260A2F"/>
<path d="M170.03 32.7401C170.13 31.7501 170.86 31.1301 171.79 31.2201C172.72 31.3101 173.29 32.0601 173.2 33.0501C173.11 34.0101 172.42 34.6701 171.44 34.5701C170.51 34.4801 169.94 33.7001 170.03 32.7401Z" fill="#260A2F"/>
</g>
<defs>
<clipPath id="clip0_1126_302">
<rect width="286.09" height="283.3" fill="white" transform="translate(16 17)"/>
</clipPath>
</defs>
</svg>
