<svg width="318" height="318" viewBox="0 0 318 318" fill="none" xmlns="http://www.w3.org/2000/svg">
<circle cx="159" cy="159" r="159" fill="#A0E1E1"/>
<path d="M159.48 64L162.011 134.908L179.231 66.076L166.966 135.961L198.12 72.2132L171.592 138.021L215.32 82.1434L175.689 140.997L230.078 95.4326L179.078 144.761L241.752 111.5L181.61 149.147L249.83 129.643L183.175 153.963L253.959 149.07L183.705 159L253.959 168.93L183.175 164.037L249.83 188.357L181.61 168.853L241.752 206.5L179.078 173.24L230.078 222.567L175.689 177.002L215.32 235.857L171.592 179.98L198.12 245.787L166.966 182.039L179.231 251.924L162.011 183.092L159.48 254L156.947 183.092L139.728 251.924L151.994 182.039L120.84 245.787L147.367 179.98L103.64 235.857L143.27 177.002L88.8808 222.567L139.881 173.24L77.2072 206.5L137.349 168.853L69.1292 188.357L135.784 164.037L65 168.93L135.255 159L65 149.07L135.784 153.963L69.1292 129.643L137.349 149.147L77.2072 111.5L139.881 144.761L88.8808 95.4326L143.27 140.997L103.64 82.1434L147.367 138.021L120.84 72.2132L151.994 135.961L139.728 66.076L156.947 134.908L159.48 64Z" fill="#260A2F"/>
<g clip-path="url(#clip0_1126_265)">
<path d="M193.38 16.25C194.78 16.4 196.58 16.7 198.8 17.33C201.53 18.1 203.35 19.3 204.3 20.8C205.19 22.15 205.45 23.9 204.91 25.81C204.37 27.75 203.36 29.11 201.97 29.92C200.07 31.07 197.46 31.19 194.76 30.43C193.93 30.2 193.18 29.95 192.59 29.61L190.18 38.19L187.42 37.41L193.38 16.25ZM193.24 27.35C193.8 27.68 194.54 27.96 195.46 28.22C198.8 29.16 201.29 28.11 202.12 25.16C202.92 22.33 201.3 20.4 198.25 19.54C197.04 19.2 196.09 19.04 195.58 19.03L193.24 27.35Z" fill="#260A2F"/>
<path d="M203.09 42.24L208.84 27.34L211.55 28.38L205.8 43.28L203.09 42.24ZM213.47 24.31C213.14 25.25 212.18 25.72 211.1 25.31C210.14 24.94 209.75 23.94 210.11 23.02C210.48 22.07 211.47 21.6 212.46 21.98C213.48 22.37 213.84 23.36 213.47 24.31Z" fill="#260A2F"/>
<path d="M226.38 44.0501C223.72 49.3201 218.9 49.7801 215.46 48.0401C211.6 46.0901 210.05 41.7601 212.33 37.2501C214.74 32.4801 219.28 31.2501 223.23 33.2501C227.33 35.3201 228.59 39.6901 226.39 44.0501H226.38ZM214.99 38.4801C213.41 41.6001 214.02 44.8701 216.55 46.1501C219.02 47.4001 222.06 46.0101 223.68 42.8001C224.9 40.3801 225.24 36.7101 222.18 35.1601C219.12 33.6101 216.36 35.7701 214.99 38.4801Z" fill="#260A2F"/>
<path d="M231.8 43.2699C232.74 41.9199 233.48 40.7899 234.16 39.6499L236.27 41.1199L234.9 43.3799L234.95 43.4199C236.47 42.6299 238.83 42.4599 241 43.9599C242.82 45.2199 244.88 48.2599 241.76 52.7599L236.32 60.5899L233.94 58.9299L239.19 51.3699C240.66 49.2599 241.09 46.9499 238.85 45.3899C237.28 44.2999 235.29 44.5599 233.96 45.6099C233.65 45.8299 233.31 46.1999 233.03 46.6099L227.56 54.4999L225.18 52.8399L231.82 43.2699H231.8Z" fill="#260A2F"/>
<path d="M245.63 58.72C243.03 61.66 243.79 64.55 245.94 66.51C247.48 67.91 248.65 68.49 249.76 68.88L248.72 70.75C247.65 70.4 246.01 69.61 244.13 67.9C240.5 64.59 240.51 60.22 243.76 56.66C247.01 53.1 251.66 52.21 255.1 55.35C258.95 58.87 256.88 63.19 254.9 65.36C254.5 65.8 254.14 66.09 253.91 66.29L245.62 58.73L245.63 58.72ZM253.32 62.92C254.59 61.58 255.94 58.92 253.53 56.72C251.36 54.74 248.59 55.87 247.06 57.2L253.32 62.92Z" fill="#260A2F"/>
<path d="M257.66 70.4101C254.71 73.0101 255.11 75.9601 256.99 78.1801C258.34 79.7601 259.43 80.4801 260.48 81.0101L259.22 82.7401C258.2 82.2601 256.67 81.2701 255.02 79.3401C251.83 75.6001 252.39 71.2601 256.06 68.1401C259.73 65.0201 264.46 64.7201 267.48 68.2601C270.86 72.2301 268.27 76.2601 266.03 78.1601C265.58 78.5501 265.18 78.7901 264.94 78.9601L257.67 70.4201L257.66 70.4101ZM264.76 75.5501C266.19 74.3801 267.86 71.9101 265.74 69.4301C263.84 67.1901 260.94 67.9701 259.26 69.1001L264.76 75.5601V75.5501Z" fill="#260A2F"/>
<path d="M270.05 80.17C271.6 79.11 272.92 78.16 274.09 77.24L275.53 79.34L273 81.19L273.07 81.3C275.25 80.69 277.36 81.36 278.46 82.97C278.65 83.24 278.75 83.45 278.84 83.71L276.58 85.26C276.47 84.98 276.33 84.71 276.1 84.39C274.94 82.7 272.84 82.38 270.82 83.29C270.46 83.46 270.04 83.67 269.63 83.95L262.61 88.76L260.99 86.39L270.05 80.18V80.17Z" fill="#260A2F"/>
<path d="M269.08 93.1601C269.01 94.1801 269.23 95.8001 269.94 97.0701C270.97 98.9101 272.38 99.2601 273.53 98.6201C274.74 97.9401 275 96.8501 274.65 94.5901C274.14 91.5801 274.86 89.6301 276.54 88.7001C278.79 87.4401 281.65 88.2301 283.32 91.2201C284.11 92.6301 284.4 94.1001 284.37 95.1301L282.17 95.5301C282.21 94.7901 282.11 93.5201 281.38 92.2301C280.54 90.7301 279.21 90.3801 278.17 90.9601C277.02 91.6001 276.97 92.7301 277.29 94.9301C277.72 97.8701 277.2 99.7801 275.13 100.94C272.68 102.31 269.89 101.37 268.04 98.0601C267.19 96.5301 266.77 94.9101 266.8 93.6101L269.09 93.1701L269.08 93.1601Z" fill="#260A2F"/>
<path d="M275.39 112.46L288.23 107.5L287.42 105.41L289.48 104.61L290.29 106.7L291 106.43C293.09 105.62 295.18 105.35 296.87 106.15C298.25 106.79 299.17 107.99 299.66 109.25C300.03 110.2 300.13 111.12 300.12 111.73L297.88 112.17C297.91 111.7 297.85 111.09 297.55 110.32C296.66 108.01 294.4 108.21 292.12 109.09L291.32 109.4L292.71 113L290.65 113.8L289.26 110.2L276.42 115.16L275.39 112.48V112.46Z" fill="#260A2F"/>
<path d="M290.03 132.06C284.33 133.61 280.78 130.33 279.76 126.6C278.63 122.43 280.81 118.38 285.69 117.06C290.85 115.66 294.79 118.22 295.95 122.48C297.15 126.91 294.75 130.77 290.03 132.05V132.06ZM286.55 119.87C283.17 120.79 281.15 123.42 281.9 126.16C282.63 128.83 285.69 130.16 289.16 129.22C291.77 128.51 294.73 126.31 293.83 123C292.93 119.69 289.49 119.08 286.56 119.88L286.55 119.87Z" fill="#260A2F"/>
<path d="M293.42 135.53C295.28 135.24 296.87 134.96 298.32 134.64L298.71 137.15L295.63 137.73L295.65 137.86C297.88 138.25 299.49 139.77 299.78 141.69C299.83 142.02 299.83 142.25 299.81 142.52L297.1 142.94C297.12 142.64 297.1 142.34 297.05 141.95C296.74 139.93 294.98 138.73 292.77 138.67C292.37 138.67 291.9 138.67 291.41 138.75L283 140.05L282.56 137.21L293.42 135.53Z" fill="#260A2F"/>
<path d="M305.04 157.24L300.45 157.32L300.53 161.48L298.32 161.52L298.24 157.36L289.63 157.52C287.65 157.56 286.54 158.14 286.57 159.75C286.58 160.51 286.69 161.07 286.8 161.43L284.63 161.6C284.39 161.04 284.21 160.16 284.19 159.03C284.17 157.68 284.58 156.58 285.35 155.87C286.19 155.03 287.61 154.71 289.49 154.67L298.2 154.51L298.16 152.04L300.37 152L300.41 154.47L304.24 154.4L305.05 157.22L305.04 157.24Z" fill="#260A2F"/>
<path d="M307.9 166.64L307.63 169.53L297.71 168.6V168.67C298.48 169.21 299.14 170 299.55 170.93C299.96 171.83 300.2 172.88 300.1 173.96C299.9 176.09 298.27 179.39 292.78 178.88L283.32 178L283.59 175.11L292.72 175.96C295.28 176.2 297.54 175.45 297.79 172.72C297.96 170.85 296.79 169.25 295.26 168.57C294.88 168.37 294.46 168.3 293.9 168.24L284.31 167.34L284.58 164.45L307.91 166.63L307.9 166.64Z" fill="#260A2F"/>
<path d="M289.52 185.16C285.68 184.34 283.54 186.42 282.89 189.25C282.42 191.28 282.5 192.58 282.7 193.74L280.56 193.76C280.34 192.66 280.22 190.84 280.79 188.36C281.89 183.57 285.71 181.44 290.4 182.52C295.09 183.6 298.15 187.22 297.11 191.75C295.94 196.83 291.16 197.15 288.3 196.49C287.72 196.36 287.29 196.19 287 196.09L289.52 185.16ZM289.63 193.92C291.42 194.37 294.4 194.24 295.13 191.06C295.79 188.2 293.44 186.34 291.53 185.66L289.62 193.92H289.63Z" fill="#260A2F"/>
<path d="M287.34 208.27C288.85 208.94 290.1 209.45 291.35 209.89L290.31 212.24L287.83 211.33L287.8 211.39C288.87 212.73 289.48 215.01 288.42 217.43C287.53 219.45 284.94 222.06 279.93 219.86L271.2 216.02L272.37 213.36L280.79 217.07C283.15 218.11 285.49 218.09 286.6 215.59C287.37 213.84 286.73 211.93 285.45 210.83C285.17 210.56 284.74 210.3 284.29 210.1L275.5 206.23L276.67 203.57L287.33 208.26L287.34 208.27Z" fill="#260A2F"/>
<path d="M274.8 224.81C271.42 222.82 268.73 224.11 267.21 226.59C266.13 228.36 265.78 229.62 265.61 230.79L263.58 230.13C263.72 229.02 264.18 227.25 265.51 225.08C268.07 220.89 272.37 220.07 276.48 222.58C280.59 225.09 282.35 229.49 279.92 233.46C277.2 237.91 272.56 236.7 270.06 235.17C269.55 234.86 269.19 234.56 268.96 234.38L274.81 224.81H274.8ZM272.13 233.16C273.69 234.15 276.55 234.97 278.26 232.19C279.79 229.68 278.15 227.17 276.56 225.93L272.14 233.17L272.13 233.16Z" fill="#260A2F"/>
<path d="M272.52 244.14L264.97 240.49C263.31 239.69 261.78 238.95 260.33 238.11L260.27 238.19C261.27 239.51 262.23 241.03 263.2 242.54L267.72 249.8L266.14 251.66L258.45 248.38C256.61 247.59 255.03 246.86 253.56 246.09L253.5 246.17C254.56 247.42 255.57 248.84 256.66 250.46L261.3 257.39L259.44 259.58L250.6 245.32L252.31 243.31L259.7 246.38C261.42 247.11 262.93 247.78 264.62 248.7L264.66 248.65C263.46 247.11 262.52 245.66 261.58 244.13L257.46 237.25L259.17 235.24L274.46 241.91L272.54 244.17L272.52 244.14Z" fill="#260A2F"/>
<path d="M247.59 264.12C248.59 265.43 249.43 266.49 250.31 267.48L248.26 269.04L246.53 267.04L246.48 267.08C246.77 268.77 246.2 271.07 244.1 272.67C242.34 274.01 238.81 275.04 235.49 270.68L229.71 263.1L232.02 261.34L237.6 268.66C239.16 270.71 241.22 271.83 243.4 270.17C244.92 269.01 245.28 267.04 244.7 265.45C244.58 265.08 244.34 264.65 244.04 264.25L238.22 256.61L240.53 254.85L247.59 264.11V264.12Z" fill="#260A2F"/>
<path d="M217.78 279.41C214.89 274.26 217.2 270.01 220.56 268.12C224.33 266 228.79 267.13 231.26 271.54C233.88 276.2 232.36 280.65 228.51 282.81C224.51 285.06 220.17 283.67 217.78 279.41ZM228.75 273.06C227.04 270.01 223.99 268.69 221.51 270.08C219.09 271.44 218.56 274.73 220.32 277.87C221.64 280.23 224.5 282.56 227.5 280.88C230.5 279.2 230.24 275.71 228.75 273.06Z" fill="#260A2F"/>
<path d="M215.23 283.55C215.96 285.28 216.62 286.76 217.29 288.09L214.95 289.08L213.64 286.23L213.52 286.28C213.69 288.54 212.6 290.47 210.81 291.23C210.51 291.36 210.28 291.42 210.01 291.46L208.94 288.94C209.24 288.88 209.53 288.8 209.89 288.65C211.77 287.85 212.51 285.86 212.02 283.7C211.93 283.31 211.81 282.86 211.61 282.4L208.29 274.56L210.93 273.44L215.21 283.56L215.23 283.55Z" fill="#260A2F"/>
<path d="M204.63 288.95C205.04 290.55 205.41 291.85 205.84 293.1L203.38 293.73L202.61 291.27L202.51 291.29C202.03 292.98 200.94 294.73 198.39 295.38C196.28 295.92 194.35 295.06 193.21 293.41L193.15 293.43C192.89 294.42 192.46 295.24 191.94 295.89C191.19 296.83 190.27 297.48 188.8 297.86C186.76 298.39 183.37 297.83 181.99 292.46L179.65 283.35L182.4 282.64L184.65 291.39C185.42 294.36 186.96 295.87 189.23 295.29C190.83 294.88 191.77 293.38 191.9 291.88C191.93 291.46 191.9 290.93 191.76 290.42L189.3 280.87L192.05 280.16L194.43 289.43C195.06 291.89 196.61 293.4 198.75 292.85C200.51 292.4 201.42 290.66 201.51 289.14C201.56 288.68 201.51 288.19 201.38 287.71L198.98 278.38L201.73 277.67L204.63 288.95Z" fill="#260A2F"/>
<path d="M166.96 284.26L167.36 286.25H167.46C168.24 284.92 169.86 283.65 172.12 283.46C175.34 283.18 177.18 285.31 177.38 287.62C177.71 291.47 174.47 293.86 168.32 294.36L168.35 294.69C168.46 296.01 169.03 298.34 172.28 298.06C173.76 297.93 175.27 297.34 176.32 296.52L177.14 298.37C175.9 299.34 174.04 300.06 172.03 300.23C167.16 300.65 165.7 297.43 165.42 294.24L164.91 288.29C164.79 286.91 164.61 285.57 164.32 284.5L166.95 284.28L166.96 284.26ZM168.08 292.35C171.24 292.15 174.78 291.28 174.51 288.19C174.35 286.32 173.02 285.53 171.55 285.66C169.48 285.84 168.28 287.26 167.93 288.65C167.86 288.95 167.82 289.29 167.84 289.59L168.08 292.35Z" fill="#260A2F"/>
<path d="M160.1 307.88L157.2 307.83L157.58 284.41L160.48 284.46L160.1 307.88Z" fill="#260A2F"/>
<path d="M146.76 285.53C146.62 286.74 145.71 287.5 144.56 287.37C143.41 287.24 142.72 286.3 142.86 285.08C142.99 283.9 143.85 283.1 145.06 283.24C146.21 283.37 146.89 284.35 146.76 285.53Z" fill="#260A2F"/>
<path d="M127.63 303.09C126.23 302.96 124.43 302.68 122.19 302.09C119.45 301.36 117.61 300.19 116.64 298.7C115.73 297.37 115.45 295.62 115.96 293.7C116.48 291.75 117.46 290.38 118.84 289.55C120.72 288.38 123.33 288.22 126.04 288.94C126.87 289.16 127.63 289.4 128.22 289.73L130.51 281.12L133.28 281.86L127.62 303.1L127.63 303.09ZM127.62 291.99C127.06 291.67 126.31 291.4 125.38 291.16C122.03 290.27 119.56 291.35 118.77 294.32C118.01 297.16 119.66 299.07 122.72 299.88C123.93 300.2 124.88 300.35 125.39 300.35L127.62 291.99Z" fill="#260A2F"/>
<path d="M107.45 295.32C107.76 294.38 108.72 293.89 109.8 294.29C110.76 294.64 111.17 295.64 110.82 296.57C110.47 297.53 109.48 298.01 108.49 297.64C107.47 297.26 107.09 296.28 107.45 295.32ZM117.57 277.24L112.04 292.22L109.32 291.21L114.85 276.23L117.57 277.24Z" fill="#260A2F"/>
<path d="M94.27 275.76C96.86 270.45 101.66 269.93 105.13 271.62C109.02 273.51 110.62 277.82 108.41 282.36C106.07 287.17 101.55 288.45 97.58 286.52C93.46 284.51 92.13 280.16 94.27 275.77V275.76ZM105.73 281.16C107.26 278.02 106.61 274.76 104.06 273.52C101.57 272.31 98.56 273.74 96.98 276.97C95.79 279.4 95.51 283.08 98.59 284.58C101.67 286.08 104.4 283.89 105.73 281.16Z" fill="#260A2F"/>
<path d="M88.8301 276.62C87.9101 277.99 87.1801 279.13 86.5201 280.28L84.3901 278.84L85.7301 276.56L85.6801 276.52C84.1801 277.34 81.8101 277.54 79.6201 276.06C77.7901 274.82 75.6801 271.81 78.7401 267.27L84.0701 259.36L86.4801 260.98L81.3401 268.62C79.9001 270.76 79.5001 273.07 81.7701 274.6C83.3601 275.67 85.3501 275.38 86.6601 274.31C86.9701 274.08 87.3001 273.71 87.5801 273.3L92.9401 265.33L95.3501 266.95L88.8401 276.61L88.8301 276.62Z" fill="#260A2F"/>
<path d="M74.7901 261.36C77.3501 258.38 76.5401 255.5 74.3701 253.58C72.8101 252.2 71.6401 251.64 70.5101 251.26L71.5201 249.38C72.5901 249.71 74.2501 250.48 76.1501 252.17C79.8301 255.43 79.8801 259.8 76.6801 263.41C73.4801 267.01 68.8401 267.97 65.3601 264.88C61.4601 261.42 63.4701 257.07 65.4101 254.87C65.8001 254.43 66.1601 254.12 66.3801 253.92L74.7701 261.36H74.7901ZM67.0401 257.27C65.7901 258.63 64.4801 261.3 66.9201 263.47C69.1201 265.42 71.8801 264.25 73.3801 262.89L67.0301 257.26L67.0401 257.27Z" fill="#260A2F"/>
<path d="M62.59 249.84C65.5 247.2 65.07 244.25 63.15 242.07C61.78 240.51 60.68 239.8 59.62 239.29L60.86 237.55C61.88 238.01 63.43 238.98 65.11 240.89C68.35 244.59 67.85 248.93 64.23 252.1C60.61 255.27 55.88 255.64 52.81 252.14C49.37 248.22 51.91 244.15 54.12 242.22C54.57 241.83 54.96 241.57 55.2 241.4L62.59 249.84ZM55.42 244.8C54.01 245.99 52.37 248.48 54.52 250.94C56.46 253.15 59.34 252.33 61.01 251.18L55.42 244.8Z" fill="#260A2F"/>
<path d="M50.08 240.26C48.54 241.35 47.24 242.31 46.09 243.24L44.62 241.16L47.12 239.27L47.04 239.16C44.87 239.8 42.76 239.16 41.63 237.57C41.44 237.3 41.33 237.09 41.24 236.84L43.48 235.26C43.6 235.54 43.74 235.8 43.97 236.13C45.15 237.8 47.26 238.09 49.26 237.16C49.62 236.99 50.04 236.77 50.44 236.49L57.39 231.58L59.05 233.92L50.08 240.26Z" fill="#260A2F"/>
<path d="M50.86 227.26C50.92 226.24 50.67 224.63 49.94 223.37C48.88 221.54 47.47 221.21 46.33 221.87C45.13 222.56 44.88 223.66 45.27 225.91C45.82 228.91 45.13 230.87 43.47 231.83C41.24 233.12 38.37 232.37 36.65 229.4C35.84 228 35.53 226.54 35.54 225.5L37.73 225.07C37.7 225.81 37.82 227.08 38.56 228.36C39.42 229.85 40.75 230.18 41.78 229.59C42.92 228.93 42.96 227.8 42.6 225.61C42.13 222.68 42.62 220.76 44.68 219.57C47.11 218.17 49.91 219.06 51.81 222.35C52.69 223.87 53.12 225.48 53.11 226.78L50.83 227.26H50.86Z" fill="#260A2F"/>
<path d="M44.2801 208.05L31.5201 213.19L32.3601 215.27L30.3101 216.1L29.4701 214.02L28.7701 214.3C26.6901 215.14 24.6101 215.44 22.9101 214.67C21.5201 214.05 20.5801 212.87 20.0801 211.61C19.7001 210.66 19.5801 209.75 19.5801 209.14L21.8101 208.67C21.7901 209.14 21.8601 209.75 22.1601 210.52C23.0801 212.82 25.3401 212.58 27.6001 211.67L28.4001 211.35L26.9601 207.77L29.0101 206.94L30.4501 210.52L43.2101 205.38L44.2801 208.04V208.05Z" fill="#260A2F"/>
<path d="M29.3599 188.67C35.0399 187.04 38.6399 190.27 39.6999 193.98C40.8899 198.14 38.7599 202.21 33.9099 203.6C28.7699 205.07 24.7899 202.57 23.5799 198.32C22.3199 193.91 24.6599 190.01 29.3599 188.66V188.67ZM33.0099 200.81C36.3699 199.85 38.3599 197.18 37.5699 194.45C36.8099 191.79 33.7299 190.51 30.2699 191.5C27.6699 192.25 24.7399 194.49 25.6899 197.79C26.6399 201.09 30.0899 201.64 33.0099 200.81Z" fill="#260A2F"/>
<path d="M25.9201 185.24C24.0701 185.55 22.4801 185.86 21.0301 186.2L20.6101 183.69L23.6801 183.07L23.6601 182.94C21.4201 182.58 19.8001 181.08 19.4701 179.16C19.4201 178.83 19.4101 178.6 19.4301 178.33L22.1301 177.87C22.1101 178.17 22.1301 178.47 22.2001 178.86C22.5401 180.88 24.3101 182.05 26.5301 182.08C26.9301 182.08 27.4001 182.07 27.8901 181.98L36.2801 180.56L36.7601 183.39L25.9301 185.22L25.9201 185.24Z" fill="#260A2F"/>
<path d="M14 163.67L18.58 163.53L18.45 159.37L20.66 159.3L20.79 163.46L29.4 163.19C31.38 163.13 32.48 162.53 32.43 160.92C32.41 160.16 32.29 159.6 32.18 159.24L34.35 159.04C34.6 159.59 34.79 160.48 34.83 161.6C34.87 162.95 34.48 164.05 33.71 164.77C32.88 165.62 31.47 165.96 29.59 166.02L20.88 166.29L20.96 168.76L18.75 168.83L18.67 166.36L14.84 166.48L13.99 163.67H14Z" fill="#260A2F"/>
<path d="M11 154.36L11.23 151.46L21.17 152.24V152.17C20.39 151.64 19.72 150.86 19.3 149.94C18.87 149.05 18.63 148 18.71 146.91C18.88 144.77 20.46 141.45 25.96 141.89L35.43 142.64L35.2 145.54L26.05 144.82C23.48 144.62 21.24 145.4 21.02 148.13C20.87 150.01 22.07 151.59 23.61 152.24C23.99 152.44 24.42 152.5 24.98 152.55L34.59 153.31L34.36 156.21L11 154.37V154.36Z" fill="#260A2F"/>
<path d="M29.1199 135.56C32.9699 136.32 35.0799 134.21 35.6899 131.37C36.1299 129.34 36.0399 128.04 35.8199 126.87L37.9599 126.82C38.1999 127.92 38.3399 129.74 37.8099 132.22C36.7699 137.03 32.9899 139.22 28.2799 138.2C23.5699 137.18 20.4599 133.61 21.4399 129.06C22.5399 123.96 27.3199 123.58 30.1899 124.19C30.7699 124.32 31.2099 124.48 31.4899 124.57L29.1199 135.54V135.56ZM28.8799 126.8C27.0799 126.38 24.1099 126.55 23.4199 129.74C22.7999 132.61 25.1699 134.44 27.0899 135.09L28.8799 126.8Z" fill="#260A2F"/>
<path d="M30.98 112.41C29.46 111.77 28.2 111.27 26.95 110.85L27.95 108.48L30.45 109.36L30.48 109.3C29.39 107.98 28.74 105.7 29.77 103.27C30.63 101.23 33.19 98.5901 38.23 100.72L47.02 104.44L45.8899 107.11L37.41 103.52C35.04 102.52 32.69 102.56 31.62 105.08C30.87 106.84 31.54 108.74 32.84 109.82C33.12 110.08 33.55 110.34 34.01 110.53L42.85 114.27L41.72 116.94L30.99 112.4L30.98 112.41Z" fill="#260A2F"/>
<path d="M43.26 95.7299C46.67 97.6699 49.34 96.3399 50.8201 93.8399C51.8801 92.0499 52.2001 90.7899 52.3601 89.6099L54.4001 90.2399C54.2801 91.3599 53.84 93.1299 52.55 95.3199C50.05 99.5499 45.7701 100.43 41.6201 97.9799C37.4701 95.5299 35.6501 91.1499 38.0201 87.1499C40.6701 82.6599 45.33 83.8099 47.85 85.2999C48.36 85.5999 48.7301 85.8899 48.96 86.0699L43.2501 95.7199L43.26 95.7299ZM45.8 87.3499C44.23 86.3799 41.3501 85.5999 39.6901 88.4099C38.1901 90.9399 39.87 93.4199 41.48 94.6499L45.8 87.3499Z" fill="#260A2F"/>
<path d="M45.2899 76.34L52.8999 79.88C54.5699 80.66 56.1099 81.38 57.5799 82.2L57.6399 82.12C56.6199 80.81 55.6399 79.31 54.6499 77.81L50.0199 70.61L51.5699 68.73L59.3099 71.91C61.1599 72.67 62.7599 73.39 64.2299 74.14L64.2899 74.06C63.2099 72.83 62.1899 71.42 61.0699 69.82L56.3299 62.96L58.1599 60.75L67.1999 74.89L65.5199 76.93L58.0899 73.96C56.3599 73.26 54.8399 72.61 53.1399 71.71L53.0999 71.76C54.3199 73.28 55.2799 74.72 56.2499 76.24L60.4599 83.06L58.7799 85.1L43.3899 78.65L45.2799 76.36L45.2899 76.34Z" fill="#260A2F"/>
<path d="M69.9399 56.0101C68.9199 54.7101 68.0599 53.6701 67.1699 52.6901L69.1999 51.1001L70.9599 53.0801L71.0099 53.0401C70.6999 51.3601 71.2399 49.0501 73.3099 47.4201C75.0499 46.0601 78.5599 44.9801 81.9399 49.2901L87.8199 56.8001L85.5299 58.5901L79.8499 51.3401C78.2599 49.3101 76.1899 48.2201 74.0299 49.9101C72.5199 51.0901 72.1899 53.0701 72.7999 54.6501C72.9199 55.0201 73.1699 55.4501 73.4799 55.8401L79.3999 63.4001L77.1099 65.1901L69.9199 56.0201L69.9399 56.0101Z" fill="#260A2F"/>
<path d="M99.5301 40.3101C102.49 45.4201 100.24 49.7001 96.9001 51.6401C93.1601 53.8101 88.6901 52.7401 86.1501 48.3701C83.4701 43.7501 84.9201 39.2801 88.7501 37.0601C92.7201 34.7601 97.0701 36.0901 99.5201 40.3101H99.5301ZM88.6501 46.8101C90.4001 49.8401 93.4701 51.1101 95.9301 49.6901C98.3301 48.3001 98.8201 45.0001 97.0101 41.8901C95.6501 39.5501 92.7601 37.2601 89.7901 38.9801C86.8201 40.7001 87.1301 44.1901 88.6501 46.8101Z" fill="#260A2F"/>
<path d="M102.02 36.1299C101.26 34.4099 100.58 32.9399 99.8899 31.6199L102.22 30.5999L103.57 33.4299L103.69 33.3799C103.49 31.1299 104.55 29.1799 106.33 28.3999C106.63 28.2699 106.86 28.1999 107.12 28.1599L108.22 30.6699C107.92 30.7299 107.64 30.8199 107.27 30.9799C105.4 31.7999 104.69 33.8099 105.21 35.9599C105.31 36.3499 105.43 36.7999 105.63 37.2499L109.06 45.0399L106.43 46.1999L102 36.1399L102.02 36.1299Z" fill="#260A2F"/>
<path d="M112.54 30.57C112.11 28.98 111.72 27.68 111.28 26.43L113.73 25.76L114.53 28.21L114.63 28.18C115.09 26.48 116.15 24.72 118.7 24.03C120.8 23.46 122.74 24.3 123.91 25.93L123.97 25.91C124.21 24.92 124.64 24.09 125.14 23.43C125.87 22.48 126.79 21.82 128.25 21.42C130.29 20.86 133.68 21.38 135.14 26.73L137.61 35.81L134.87 36.56L132.49 27.83C131.68 24.87 130.11 23.38 127.85 24C126.26 24.43 125.34 25.95 125.23 27.45C125.21 27.87 125.25 28.4 125.39 28.91L127.99 38.43L125.25 39.18L122.73 29.95C122.06 27.5 120.49 26.01 118.36 26.59C116.61 27.07 115.72 28.82 115.65 30.34C115.6 30.8 115.67 31.29 115.8 31.77L118.34 41.07L115.6 41.82L112.53 30.58L112.54 30.57Z" fill="#260A2F"/>
<path d="M150.25 34.73L149.82 32.75H149.72C148.96 34.1 147.36 35.38 145.1 35.61C141.88 35.93 140.02 33.83 139.79 31.53C139.41 27.69 142.61 25.25 148.76 24.67L148.73 24.34C148.6 23.03 148 20.7 144.75 21.02C143.27 21.17 141.77 21.78 140.73 22.61L139.88 20.77C141.11 19.79 142.96 19.04 144.96 18.84C149.82 18.36 151.33 21.56 151.65 24.74L152.24 30.68C152.38 32.06 152.58 33.4 152.88 34.46L150.25 34.72V34.73ZM149.02 26.66C145.86 26.91 142.34 27.82 142.64 30.91C142.83 32.78 144.16 33.54 145.64 33.4C147.71 33.19 148.89 31.75 149.22 30.36C149.29 30.05 149.32 29.72 149.29 29.42L149.02 26.66Z" fill="#260A2F"/>
<path d="M156.37 11.05L159.27 11L159.65 34.42L156.75 34.47L156.37 11.05Z" fill="#260A2F"/>
<path d="M170.46 33.18C170.58 31.97 171.49 31.19 172.63 31.31C173.77 31.43 174.48 32.36 174.36 33.57C174.24 34.75 173.4 35.56 172.19 35.44C171.04 35.33 170.34 34.36 170.46 33.18Z" fill="#260A2F"/>
</g>
<defs>
<clipPath id="clip0_1126_265">
<rect width="296.9" height="296.88" fill="white" transform="translate(11 11)"/>
</clipPath>
</defs>
</svg>
