<svg width="318" height="318" viewBox="0 0 318 318" fill="none" xmlns="http://www.w3.org/2000/svg">
<circle cx="159" cy="159" r="159" fill="#FFC091"/>
<path fill-rule="evenodd" clip-rule="evenodd" d="M165.786 67.8C165.786 65.7013 164.084 64 161.986 64H156.014C153.916 64 152.214 65.7013 152.214 67.8V104.541C152.214 108.718 146.456 109.837 144.891 105.965L131.127 71.8988C130.341 69.953 128.127 69.0129 126.181 69.799L120.644 72.036C118.698 72.8222 117.758 75.0369 118.544 76.9828L133.217 113.3C134.768 117.138 129.934 120.338 127.007 117.411L99.3101 89.7136C97.8261 88.2297 95.42 88.2297 93.936 89.7136L89.7136 93.936C88.2297 95.42 88.2297 97.8261 89.7136 99.3101L114.586 124.182C117.555 127.151 114.225 132.032 110.377 130.351L78.145 116.269C76.2218 115.428 73.9817 116.306 73.1415 118.229L70.7507 123.701C69.9105 125.625 70.7884 127.865 72.7115 128.705L109.853 144.932C113.626 146.581 112.449 152.214 108.331 152.214H67.8C65.7013 152.214 64 153.916 64 156.014V161.986C64 164.084 65.7013 165.786 67.8 165.786H108.331C112.449 165.786 113.626 171.419 109.852 173.068L72.7116 189.295C70.7884 190.135 69.9105 192.375 70.7508 194.298L73.1415 199.77C73.9817 201.694 76.2219 202.572 78.145 201.731L110.377 187.649C114.225 185.968 117.555 190.849 114.586 193.818L89.7136 218.689C88.2297 220.174 88.2297 222.58 89.7136 224.064L93.9361 228.286C95.42 229.77 97.8261 229.77 99.3101 228.286L127.007 200.589C129.934 197.662 134.768 200.862 133.217 204.7L118.544 241.017C117.758 242.963 118.698 245.177 120.644 245.964L126.181 248.201C128.127 248.987 130.341 248.047 131.127 246.101L144.891 212.036C146.456 208.162 152.214 209.283 152.214 213.459V250.2C152.214 252.299 153.916 254 156.014 254H161.986C164.084 254 165.786 252.299 165.786 250.2V213.459C165.786 209.283 171.545 208.162 173.109 212.036L186.872 246.101C187.659 248.047 189.873 248.987 191.82 248.201L197.356 245.964C199.302 245.177 200.242 242.963 199.456 241.017L184.783 204.7C183.232 200.862 188.065 197.662 190.993 200.589L218.689 228.286C220.174 229.77 222.58 229.77 224.064 228.286L228.286 224.064C229.77 222.58 229.77 220.174 228.286 218.689L203.414 193.818C200.446 190.849 203.775 185.968 207.623 187.649L239.854 201.731C241.778 202.572 244.018 201.694 244.858 199.77L247.249 194.298C248.089 192.375 247.211 190.135 245.288 189.295L208.147 173.068C204.375 171.419 205.551 165.786 209.669 165.786H250.2C252.299 165.786 254 164.084 254 161.986V156.014C254 153.916 252.299 152.214 250.2 152.214H209.669C205.551 152.214 204.374 146.581 208.147 144.932L245.288 128.705C247.211 127.865 248.089 125.625 247.249 123.701L244.858 118.229C244.018 116.306 241.778 115.428 239.854 116.269L207.623 130.351C203.775 132.032 200.446 127.151 203.414 124.182L228.286 99.31C229.77 97.826 229.77 95.42 228.286 93.936L224.064 89.7136C222.58 88.2296 220.174 88.2296 218.689 89.7136L190.993 117.411C188.065 120.338 183.232 117.138 184.783 113.3L199.456 76.9828C200.242 75.0369 199.302 72.8222 197.356 72.036L191.82 69.799C189.873 69.0129 187.659 69.953 186.872 71.8988L173.109 105.965C171.545 109.837 165.786 108.718 165.786 104.541V67.8Z" fill="#260A2F"/>
<g clip-path="url(#clip0_1126_262)">
<path d="M305 174.767L304.573 177.655L284.508 174.747L283.109 184.299L280.668 183.944L282.494 171.504L305 174.757V174.767Z" fill="#260A2F"/>
<path d="M287.108 189.484C283.218 188.498 280.946 190.519 280.162 193.367C279.597 195.408 279.616 196.729 279.785 197.921L277.602 197.852C277.423 196.729 277.374 194.875 278.058 192.382C279.388 187.561 283.367 185.55 288.121 186.852C292.874 188.143 295.851 191.938 294.59 196.502C293.181 201.608 288.279 201.736 285.392 200.948C284.806 200.79 284.37 200.603 284.082 200.484L287.108 189.493V189.484ZM286.86 198.385C288.676 198.917 291.723 198.907 292.606 195.703C293.4 192.825 291.078 190.844 289.153 190.075L286.86 198.385Z" fill="#260A2F"/>
<path d="M293.747 212.372L289.381 210.657L287.823 214.58L285.719 213.752L287.277 209.829L279.09 206.616C277.205 205.876 275.935 205.985 275.32 207.513C275.032 208.232 274.923 208.794 274.873 209.178L272.75 208.488C272.75 207.877 272.918 206.97 273.345 205.906C273.851 204.624 274.665 203.757 275.687 203.402C276.808 202.949 278.277 203.195 280.063 203.895L288.349 207.148L289.282 204.812L291.385 205.64L290.452 207.976L294.094 209.405L293.747 212.372Z" fill="#260A2F"/>
<path d="M291.266 223.097L284.201 219.124L284.985 217.488L292.527 220.455L291.266 223.087V223.097Z" fill="#260A2F"/>
<path d="M271.579 217.725C270.646 218.198 269.346 219.233 268.612 220.514C267.54 222.377 267.967 223.777 269.137 224.447C270.368 225.147 271.459 224.802 273.256 223.314C275.627 221.303 277.711 220.909 279.418 221.875C281.7 223.176 282.514 226.074 280.767 229.1C279.944 230.519 278.813 231.545 277.89 232.057L276.391 230.352C277.056 229.997 278.118 229.248 278.872 227.937C279.745 226.429 279.348 225.078 278.297 224.487C277.126 223.817 276.113 224.359 274.357 225.798C272.015 227.71 270.06 228.252 267.957 227.06C265.466 225.64 264.821 222.722 266.756 219.381C267.649 217.843 268.85 216.631 270.001 215.98L271.588 217.735L271.579 217.725Z" fill="#260A2F"/>
<path d="M258.49 232.915C259.294 233.684 260.514 234.788 261.626 235.724L276.699 248.381L274.804 250.609L266.974 244.034L266.935 244.083C267.649 246.045 267.332 248.233 265.635 250.234C263.025 253.309 258.599 253.319 254.828 250.116C250.373 246.37 250.532 241.727 252.883 238.957C254.412 237.163 256.327 236.316 258.758 236.779L258.827 236.7L256.853 234.867L258.51 232.925L258.49 232.915ZM261.507 239.44C261.219 239.204 260.891 239.016 260.594 238.849C258.649 237.962 256.456 238.356 255.067 240.002C253.062 242.358 253.796 245.384 256.654 247.789C259.155 249.889 262.38 250.402 264.424 247.996C265.734 246.459 265.893 244.142 264.563 242.23C264.345 241.964 264.107 241.629 263.739 241.323L261.497 239.44H261.507Z" fill="#260A2F"/>
<path d="M238.991 259.066C237.87 257.814 236.867 256.73 235.935 255.843L237.909 254.108L239.805 255.981L239.854 255.941C239.566 254.453 239.715 252.038 241.888 250.125C243.814 248.44 247.049 247.474 250.849 251.742L257.18 258.849L254.957 260.801L248.964 254.068C246.91 251.762 244.816 250.825 242.792 252.6C241.303 253.911 241.184 255.853 241.65 257.183C241.819 257.617 242.097 258.09 242.454 258.494L249.093 265.956L246.87 267.908L239.001 259.066H238.991Z" fill="#260A2F"/>
<path d="M232.461 258.238L241.978 271.417L239.566 273.132L230.05 259.953L232.461 258.228V258.238ZM241.968 277.036C241.353 276.237 241.482 275.153 242.444 274.473C243.298 273.872 244.369 274.089 244.955 274.907C245.57 275.755 245.411 276.859 244.528 277.48C243.625 278.12 242.573 277.884 241.968 277.036Z" fill="#260A2F"/>
<path d="M239.001 282.645L236.49 284.212L223.739 264.074L226.25 262.506L239.001 282.645Z" fill="#260A2F"/>
<path d="M217.944 294.01L209.221 276.425C208.576 275.134 207.822 273.675 207.237 272.728L209.628 271.555L210.997 274.02L211.057 273.99C211.067 271.969 212.248 269.86 214.639 268.687C218.182 266.952 222.379 268.598 224.572 273.014C227.004 277.834 225.456 282.3 221.883 284.045C219.641 285.139 217.606 284.833 216.366 283.985L216.306 284.015L220.613 292.699L217.954 294L217.944 294.01ZM214.302 279.993C214.471 280.318 214.719 280.762 214.977 281.048C216.207 282.536 218.341 283.217 220.345 282.231C223.104 280.88 223.54 277.677 221.943 274.463C220.484 271.516 217.825 269.791 214.947 271.201C213.161 272.068 212.109 274.049 212.605 276.267C212.694 276.671 212.843 277.046 213.052 277.47L214.302 279.993Z" fill="#260A2F"/>
<path d="M187.569 295.696C187.331 294.542 187.073 293.261 186.567 291.349L184.175 282.231C183.232 278.633 183.371 276.237 184.542 274.483C185.703 272.659 187.807 271.624 189.792 271.112C191.687 270.619 193.89 270.53 195.388 271.043L195.239 273.399C194.029 273.024 192.243 272.856 190.278 273.369C187.341 274.128 185.584 276.218 186.626 280.17L187.083 281.925L187.152 281.905C187.648 280.22 189.037 278.613 191.488 277.972C195.408 276.957 199.08 279.54 200.221 283.887C201.62 289.21 198.921 293.123 195.299 294.069C192.56 294.779 190.675 293.744 189.653 292.62L189.583 292.64L190.079 295.045L187.569 295.696ZM188.908 288.727C189.037 289.21 189.176 289.624 189.415 289.978C190.367 291.496 192.133 292.492 194.227 291.95C196.966 291.24 198.326 288.431 197.373 284.794C196.559 281.718 194.327 279.559 191.221 280.358C189.454 280.811 188.144 282.329 188.005 284.31C187.966 284.843 188.045 285.405 188.174 285.898L188.918 288.717L188.908 288.727Z" fill="#260A2F"/>
<path d="M165.728 290.511C165.063 284.547 168.933 281.491 172.853 281.058C177.249 280.575 180.99 283.404 181.555 288.5C182.161 293.902 178.955 297.45 174.46 297.943C169.796 298.456 166.274 295.439 165.728 290.511ZM178.588 288.934C178.191 285.405 175.849 282.96 172.972 283.276C170.154 283.581 168.338 286.45 168.735 290.077C169.042 292.808 170.799 296.12 174.292 295.745C177.775 295.361 178.936 291.999 178.588 288.934Z" fill="#260A2F"/>
<path d="M146.814 290.107C147.013 284.113 151.28 281.639 155.219 281.757C159.635 281.905 162.939 285.227 162.771 290.353C162.592 295.775 158.921 298.84 154.396 298.702C149.712 298.554 146.655 295.065 146.814 290.107ZM159.764 290.353C159.883 286.804 157.908 284.054 155.011 283.965C152.183 283.877 149.97 286.45 149.851 290.107C149.761 292.857 151.032 296.376 154.535 296.494C158.037 296.603 159.665 293.438 159.764 290.363V290.353Z" fill="#260A2F"/>
<path d="M126.065 302.487L129.508 283.177C129.756 281.758 130.014 280.131 130.114 279.027L132.743 279.49L132.386 282.29H132.455C133.666 280.673 135.869 279.668 138.499 280.131C142.389 280.811 144.79 284.606 143.927 289.456C143.014 294.779 139.104 297.46 135.184 296.77C132.723 296.336 131.275 294.887 130.769 293.478H130.699L129.002 303L126.075 302.487H126.065ZM131.483 289.042C131.414 289.407 131.364 289.91 131.394 290.284C131.493 292.206 132.823 294.01 135.016 294.395C138.042 294.927 140.305 292.601 140.93 289.072C141.505 285.838 140.384 282.881 137.229 282.329C135.264 281.984 133.249 282.96 132.326 285.04C132.158 285.415 132.049 285.809 131.969 286.272L131.473 289.042H131.483Z" fill="#260A2F"/>
<path d="M108.54 272.413C109.414 272.314 111.21 272.413 113.264 273.192C117.868 274.927 119.684 279.165 117.908 283.798C116.122 288.47 111.617 290.639 106.625 288.756C104.988 288.135 103.688 287.179 103.073 286.519L104.522 284.626C105.038 285.247 105.95 285.986 107.459 286.558C110.962 287.879 113.839 286.026 115.05 282.862C116.39 279.352 114.941 276.336 111.914 275.193C110.337 274.601 109.146 274.611 108.223 274.66L108.54 272.413Z" fill="#260A2F"/>
<path d="M89.468 271.131C92.316 265.848 97.2478 265.503 100.731 267.356C104.631 269.426 106.099 273.862 103.658 278.386C101.078 283.167 96.4143 284.301 92.4252 282.172C88.2971 279.973 87.1063 275.498 89.468 271.131ZM100.959 277.065C102.646 273.931 102.11 270.609 99.55 269.249C97.0494 267.918 93.9236 269.249 92.187 272.472C90.8771 274.897 90.4405 278.613 93.5366 280.259C96.6326 281.905 99.5004 279.786 100.959 277.065Z" fill="#260A2F"/>
<path d="M83.4447 271.861C82.3928 273.172 81.5592 274.266 80.7952 275.38L78.7609 273.773L80.299 271.644L80.2196 271.585C78.5426 272.226 76.4488 272.413 74.3352 270.747C72.5887 269.367 72.1124 267.277 72.7574 265.345L72.7078 265.306C71.7452 265.7 70.8025 265.848 69.959 265.828C68.7286 265.799 67.637 265.444 66.4264 264.488C64.7394 263.147 63.112 260.062 66.6447 255.665L72.6383 248.194L74.9107 249.988L69.1453 257.174C67.1905 259.608 66.9126 261.787 68.7881 263.275C70.1079 264.32 71.9139 264.162 73.2138 263.354C73.5711 263.127 73.9878 262.763 74.3252 262.349L80.6066 254.512L82.879 256.306L76.7763 263.906C75.1588 265.927 74.8809 268.105 76.6473 269.505C78.0961 270.658 80.0807 270.333 81.3707 269.475C81.7776 269.239 82.1447 268.894 82.4623 268.5L88.6047 260.85L90.8771 262.644L83.4546 271.9L83.4447 271.861Z" fill="#260A2F"/>
<path d="M61.832 252.403C60.2542 253.763 59.0237 254.916 57.9024 255.981L56.146 253.98L58.1703 252.048L58.1306 251.999C55.8284 252.383 53.6751 251.713 51.9286 249.722C49.3387 246.764 49.9043 242.358 53.6453 239.125C58.0711 235.3 62.606 236.079 65.1364 238.967C66.5554 240.584 67.0813 242.614 66.5058 244.408L66.5455 244.458L73.2337 238.672L75.1588 240.87L61.822 252.403H61.832ZM63.1815 247.366C63.509 247.08 63.7769 246.764 64.0051 246.469C65.2059 244.724 65.0967 242.457 63.6975 240.87C61.6335 238.524 58.5077 238.829 55.6796 241.274C53.2087 243.413 52.2263 246.528 54.2903 248.874C55.62 250.392 57.952 250.855 60.0061 249.84C60.3534 249.672 60.7503 249.465 61.058 249.199L63.1716 247.375L63.1815 247.366Z" fill="#260A2F"/>
<path d="M53.3476 223.649L51.7599 224.97L51.8194 225.049C53.3873 225.108 55.3124 225.946 56.5925 227.878C58.4085 230.628 57.3764 233.299 55.4017 234.581C52.0973 236.729 48.3662 234.995 44.9427 229.731L44.6549 229.918C43.5237 230.657 41.6978 232.284 43.5237 235.064C44.3572 236.325 45.6175 237.39 46.8678 237.932L45.5976 239.559C44.129 238.918 42.571 237.597 41.4398 235.892C38.701 231.742 40.8841 228.873 43.6229 227.099L48.7333 223.777C49.9142 223.008 51.0355 222.2 51.8591 221.421L53.3377 223.669L53.3476 223.649ZM46.6197 228.548C48.3364 231.278 50.8371 234.019 53.4865 232.294C55.0941 231.249 55.1536 229.682 54.3201 228.42C53.1591 226.655 51.2836 226.271 49.8745 226.626C49.5669 226.705 49.2493 226.833 48.9913 227L46.6197 228.538V228.548Z" fill="#260A2F"/>
<path d="M39.2172 223.264C37.699 223.984 36.4585 224.605 35.2876 225.275L34.1564 222.919L36.5181 221.608L36.4883 221.549C34.7418 221.49 32.5587 220.445 31.3878 218.03C30.4153 216 30.1176 212.283 35.1785 209.878L43.9803 205.699L45.2604 208.36L36.7662 212.392C34.3945 213.516 32.8366 215.339 34.0373 217.843C34.8808 219.597 36.786 220.366 38.4928 220.11C38.8897 220.071 39.376 219.913 39.8324 219.696L48.6939 215.497L49.9739 218.158L39.2271 223.255L39.2172 223.264Z" fill="#260A2F"/>
<path d="M21.7918 205.571C22.7345 205.206 23.7467 205.63 24.1436 206.734C24.5009 207.71 23.9849 208.676 23.0322 209.011C22.0498 209.366 21.0278 208.902 20.6606 207.897C20.2835 206.852 20.8094 205.926 21.7918 205.571ZM42.6008 201.687L27.2198 207.138L26.2275 204.358L41.6085 198.907L42.6008 201.687Z" fill="#260A2F"/>
<path d="M32.3206 195.043C36.2005 194.008 37.173 191.14 36.4486 188.271C35.9326 186.221 35.2578 185.077 34.5235 184.121L36.4585 183.116C37.173 184.013 38.1356 185.6 38.7607 188.104C39.9912 192.943 37.5104 196.64 32.7373 197.833C27.9643 199.025 23.4889 197.172 22.3279 192.589C21.028 187.453 25.2255 184.949 28.1429 184.23C28.7284 184.082 29.2047 184.032 29.5123 183.993L32.3106 195.043H32.3206ZM28.133 187.177C26.2972 187.601 23.6477 189.089 24.4614 192.313C25.1957 195.201 28.1925 195.802 30.2466 195.536L28.133 187.187V187.177Z" fill="#260A2F"/>
<path d="M33.5411 179.833C33.9976 178.897 34.4044 177.29 34.206 175.831C33.9281 173.702 32.7274 172.844 31.3878 173.012C29.9787 173.189 29.3238 174.126 28.7978 176.383C28.133 179.409 26.704 180.977 24.769 181.223C22.1592 181.558 19.7479 179.735 19.3013 176.285C19.0929 174.658 19.3708 173.17 19.7876 172.204L22.0203 172.657C21.7027 173.337 21.3157 174.569 21.5142 176.068C21.7424 177.793 22.8737 178.631 24.0744 178.473C25.414 178.305 25.8903 177.261 26.4163 175.062C27.1208 172.135 28.3414 170.528 30.7527 170.213C33.6007 169.848 35.883 171.78 36.3891 175.605C36.6173 177.369 36.3891 179.055 35.8731 180.267L33.5411 179.823V179.833Z" fill="#260A2F"/>
<path d="M33.1738 160.198C31.9235 160.198 31.0502 159.35 31.0601 158.177C31.0601 157.004 31.9433 156.206 33.1936 156.206C34.4043 156.206 35.3172 156.984 35.3073 158.226C35.3073 159.399 34.3844 160.198 33.1738 160.198Z" fill="#260A2F"/>
<path d="M13 142.849L13.4267 139.961L33.4914 142.898L34.9104 133.346L37.3515 133.701L35.5058 146.141L13.0099 142.849H13Z" fill="#260A2F"/>
<path d="M30.9311 128.152C34.821 129.147 37.0934 127.127 37.8873 124.288C38.4529 122.257 38.4331 120.926 38.2743 119.734L40.4574 119.812C40.636 120.936 40.6757 122.789 39.9811 125.283C38.6414 130.094 34.6523 132.095 29.909 130.793C25.1558 129.492 22.1888 125.687 23.459 121.133C24.878 116.027 29.78 115.909 32.6677 116.707C33.2532 116.865 33.6898 117.052 33.9775 117.171L30.9212 128.162L30.9311 128.152ZM31.1991 119.251C29.3831 118.718 26.3367 118.718 25.4535 121.912C24.6497 124.79 26.9718 126.782 28.8969 127.55L31.209 119.251H31.1991Z" fill="#260A2F"/>
<path d="M24.3422 105.234L28.6985 106.959L30.2663 103.035L32.3701 103.863L30.8022 107.787L38.9888 111.02C40.8742 111.759 42.1444 111.651 42.7596 110.133C43.0474 109.413 43.1665 108.851 43.2062 108.467L45.3297 109.157C45.3297 109.778 45.1611 110.675 44.7344 111.739C44.2283 113.021 43.4046 113.878 42.3925 114.243C41.2712 114.697 39.8025 114.45 38.0163 113.74L29.7404 110.468L28.8076 112.804L26.7039 111.976L27.6367 109.64L23.9949 108.201L24.3422 105.234Z" fill="#260A2F"/>
<path d="M26.8527 94.5186L33.9081 98.5009L33.1241 100.137L25.5825 97.1504L26.8527 94.5186Z" fill="#260A2F"/>
<path d="M46.5206 99.9401C47.4534 99.4669 48.7533 98.4319 49.4976 97.1603C50.5792 95.2973 50.1525 93.8976 48.9816 93.2273C47.7511 92.5274 46.6595 92.8626 44.8634 94.351C42.4918 96.3619 40.398 96.7463 38.7011 95.7705C36.4188 94.4693 35.615 91.5614 37.3714 88.5451C38.195 87.1256 39.3263 86.1103 40.2491 85.5879L41.7476 87.2932C41.0728 87.6481 40.0209 88.3874 39.2568 89.6984C38.3836 91.2065 38.7706 92.557 39.8225 93.1583C40.9934 93.8286 42.0056 93.2864 43.7719 91.8571C46.1237 89.9547 48.0786 89.4125 50.1823 90.6151C52.6631 92.0345 53.3081 94.9622 51.3731 98.2939C50.48 99.8317 49.2693 101.034 48.1182 101.685L46.5305 99.9204L46.5206 99.9401Z" fill="#260A2F"/>
<path d="M59.6489 84.7994C58.8451 84.0305 57.6245 82.9167 56.5231 81.9901L41.4795 69.3038L43.3748 67.0859L51.1943 73.6804L51.234 73.6311C50.5195 71.6695 50.847 69.4812 52.5439 67.49C55.1636 64.4244 59.5893 64.4244 63.3502 67.6379C67.7958 71.3935 67.6271 76.0363 65.2753 78.7963C63.7471 80.5805 61.832 81.4282 59.4008 80.9649L59.3313 81.0438L61.2961 82.8772L59.6389 84.8191L59.6489 84.7994ZM56.6421 78.264C56.9299 78.5006 57.2574 78.6879 57.5551 78.8555C59.5 79.7426 61.693 79.3483 63.0823 77.7219C65.0868 75.3759 64.3624 72.3398 61.5144 69.9346C59.0237 67.835 55.7987 67.3126 53.7446 69.7079C52.4347 71.2457 52.266 73.5621 53.5957 75.4744C53.8041 75.7406 54.0522 76.0757 54.4094 76.3813L56.6421 78.264Z" fill="#260A2F"/>
<path d="M79.1977 58.6777C80.3091 59.9394 81.3213 61.0237 82.2441 61.9109L80.2694 63.6359L78.384 61.763L78.3344 61.8025C78.6221 63.2909 78.4634 65.7059 76.2902 67.6084C74.3651 69.294 71.1202 70.2501 67.3395 65.9721L61.0283 58.8551L63.261 56.9034L69.2348 63.6458C71.2889 65.9622 73.3728 66.8987 75.3971 65.1244C76.8955 63.8133 77.0146 61.8813 76.5482 60.5407C76.3894 60.107 76.1017 59.6339 75.7444 59.2297L69.1256 51.7579L71.3584 49.8062L79.2076 58.658L79.1977 58.6777Z" fill="#260A2F"/>
<path d="M76.2604 40.7077C76.8757 41.5061 76.7467 42.5904 75.7841 43.2706C74.9307 43.8719 73.859 43.6452 73.2735 42.827C72.6682 41.9793 72.827 40.8753 73.7102 40.2543C74.6132 39.6135 75.665 39.86 76.2703 40.6978L76.2604 40.7077ZM85.7271 59.5252L76.2406 46.3263L78.6519 44.6112L88.1385 57.8101L85.7271 59.5252Z" fill="#260A2F"/>
<path d="M79.2473 35.099L81.7678 33.5317L94.4794 53.6997L91.9589 55.267L79.2473 35.099Z" fill="#260A2F"/>
<path d="M100.334 23.7729L109.017 41.3879C109.652 42.6792 110.416 44.1381 110.992 45.0942L108.6 46.2574L107.231 43.7832L107.171 43.8128C107.151 45.8335 105.971 47.943 103.579 49.1061C100.036 50.8312 95.8389 49.1751 93.6558 44.7492C91.2346 39.9192 92.7925 35.4637 96.3748 33.7189C98.6174 32.6248 100.652 32.9402 101.902 33.7978L101.962 33.7682L97.6747 25.0741L100.344 23.7729H100.334ZM103.946 37.7999C103.787 37.4647 103.529 37.031 103.281 36.7451C102.061 35.2468 99.9174 34.5765 97.9228 35.5425C95.1642 36.8831 94.7176 40.0867 96.3053 43.3101C97.764 46.2574 100.414 47.9923 103.291 46.5925C105.077 45.7251 106.139 43.7536 105.643 41.5259C105.554 41.1218 105.405 40.7472 105.197 40.3233L103.946 37.79V37.7999Z" fill="#260A2F"/>
<path d="M130.719 22.1662C130.947 23.3195 131.215 24.6009 131.711 26.5133L134.083 35.6312C135.016 39.2291 134.877 41.6245 133.696 43.3791C132.535 45.2027 130.431 46.2278 128.437 46.7404C126.541 47.2234 124.338 47.3121 122.84 46.7897L122.989 44.4338C124.199 44.8182 125.986 44.9759 127.95 44.4732C130.888 43.7142 132.654 41.6343 131.622 37.6815L131.165 35.927L131.096 35.9467C130.59 37.6323 129.201 39.239 126.75 39.8699C122.83 40.8753 119.158 38.2927 118.027 33.9358C116.648 28.6129 119.357 24.6995 122.979 23.7631C125.728 23.0632 127.593 24.0982 128.625 25.222L128.695 25.2022L128.208 22.7971L130.729 22.1465L130.719 22.1662ZM129.359 29.1254C129.23 28.6424 129.091 28.2284 128.863 27.8736C127.911 26.3555 126.154 25.3501 124.06 25.8824C121.312 26.5823 119.952 29.3916 120.905 33.0289C121.709 36.1142 123.941 38.273 127.047 37.4745C128.814 37.0211 130.124 35.5031 130.272 33.5316C130.312 32.9993 130.233 32.4375 130.104 31.9446L129.369 29.1254H129.359Z" fill="#260A2F"/>
<path d="M152.55 27.4005C153.195 33.3642 149.325 36.4101 145.395 36.834C140.999 37.3071 137.268 34.4682 136.713 29.372C136.127 23.9702 139.332 20.4216 143.828 19.9386C148.491 19.4359 152.014 22.4621 152.55 27.3907V27.4005ZM139.69 28.9481C140.077 32.477 142.408 34.9216 145.296 34.6161C148.114 34.3105 149.94 31.4519 149.543 27.8244C149.246 25.0939 147.489 21.772 144.006 22.1466C140.523 22.5212 139.352 25.8825 139.69 28.9481Z" fill="#260A2F"/>
<path d="M171.473 27.844C171.265 33.8372 166.988 36.3114 163.049 36.1734C158.633 36.0255 155.338 32.6839 155.517 27.5581C155.705 22.1268 159.397 19.071 163.912 19.2287C168.596 19.3864 171.652 22.8858 171.473 27.844ZM158.524 27.568C158.395 31.1166 160.359 33.8668 163.267 33.9653C166.105 34.0639 168.318 31.4912 168.447 27.8341C168.546 25.0839 167.286 21.555 163.773 21.4367C160.26 21.3185 158.633 24.4826 158.524 27.5581V27.568Z" fill="#260A2F"/>
<path d="M192.213 15.5223L188.73 34.813C188.472 36.2325 188.214 37.8491 188.115 38.9629L185.495 38.4996L185.862 35.71H185.793C184.572 37.3168 182.369 38.3222 179.749 37.8589C175.86 37.1689 173.468 33.364 174.341 28.5241C175.264 23.211 179.174 20.5298 183.094 21.2297C185.554 21.6634 187.003 23.1223 187.499 24.5319H187.569L189.286 15.0098L192.203 15.5322L192.213 15.5223ZM186.775 28.9578C186.844 28.5931 186.894 28.0904 186.864 27.7158C186.765 25.7936 185.445 23.9897 183.252 23.5955C180.226 23.0533 177.963 25.3796 177.318 28.9085C176.733 32.1417 177.844 35.0989 181 35.6608C182.955 36.0058 184.979 35.0397 185.912 32.9599C186.08 32.5853 186.19 32.191 186.269 31.7277L186.765 28.9578H186.775Z" fill="#260A2F"/>
<path d="M209.688 45.6267C208.814 45.7252 207.018 45.6267 204.974 44.8381C200.37 43.0933 198.574 38.8547 200.35 34.2218C202.146 29.5593 206.661 27.4006 211.643 29.2932C213.28 29.9142 214.57 30.8703 215.185 31.5308L213.736 33.4234C213.22 32.7925 212.307 32.0532 210.799 31.4815C207.296 30.1507 204.418 32.0039 203.208 35.1681C201.858 38.6773 203.297 41.6936 206.324 42.8469C207.901 43.4482 209.092 43.4285 210.015 43.3891L209.698 45.6365L209.688 45.6267Z" fill="#260A2F"/>
<path d="M228.76 46.9474C225.892 52.2309 220.96 52.5562 217.487 50.6932C213.597 48.6133 212.139 44.1677 214.59 39.6629C217.18 34.8821 221.854 33.7682 225.833 35.8974C229.961 38.1054 231.132 42.5806 228.76 46.9474ZM217.279 40.9838C215.582 44.1085 216.108 47.4403 218.668 48.8104C221.159 50.151 224.295 48.8104 226.041 45.6068C227.351 43.1918 227.798 39.4657 224.711 37.8097C221.625 36.1537 218.748 38.273 217.279 40.9838Z" fill="#260A2F"/>
<path d="M234.783 46.2377C235.835 44.9267 236.679 43.8325 237.443 42.7285L239.467 44.3451L237.929 46.4743L238.008 46.5334C239.685 45.8927 241.779 45.7153 243.883 47.391C245.62 48.771 246.096 50.8706 245.451 52.7928L245.5 52.8322C246.463 52.4379 247.406 52.2901 248.249 52.3098C249.48 52.3394 250.571 52.6942 251.782 53.6602C253.469 55.0008 255.086 58.0861 251.544 62.4825L245.54 69.9346L243.278 68.1307L249.053 60.9645C251.018 58.5297 251.296 56.3513 249.43 54.8628C248.11 53.8179 246.304 53.9658 245.004 54.7741C244.647 55.0008 244.23 55.3557 243.893 55.7795L237.592 63.6062L235.329 61.8023L241.442 54.2122C243.069 52.2014 243.347 50.0229 241.591 48.6133C240.142 47.46 238.157 47.7754 236.867 48.633C236.46 48.8696 236.093 49.2245 235.776 49.6089L229.623 57.2483L227.361 55.4444L234.803 46.2081L234.783 46.2377Z" fill="#260A2F"/>
<path d="M256.347 65.7353C257.924 64.375 259.155 63.2316 260.286 62.167L262.033 64.168L260.008 66.0902L260.048 66.1395C262.35 65.755 264.503 66.4352 266.25 68.4362C268.84 71.4033 268.254 75.7996 264.503 79.0229C260.068 82.8377 255.533 82.0491 253.012 79.1609C251.593 77.5345 251.077 75.5039 251.653 73.7197L251.613 73.6704L244.905 79.4468L242.98 77.2388L256.337 65.7353H256.347ZM254.977 70.7724C254.65 71.0583 254.382 71.3737 254.144 71.6595C252.943 73.4043 253.042 75.6715 254.431 77.2683C256.485 79.6242 259.621 79.3186 262.449 76.8839C264.92 74.7547 265.912 71.6398 263.858 69.2839C262.529 67.7659 260.197 67.2928 258.143 68.3081C257.795 68.4757 257.398 68.6827 257.091 68.9488L254.977 70.7724Z" fill="#260A2F"/>
<path d="M264.761 94.5187L266.359 93.2077L266.299 93.1189C264.732 93.0598 262.807 92.2219 261.536 90.2801C259.73 87.5299 260.762 84.8586 262.737 83.5771C266.041 81.4381 269.773 83.1828 273.186 88.4466L273.474 88.2593C274.605 87.5299 276.431 85.9034 274.615 83.1237C273.792 81.8619 272.521 80.7974 271.271 80.2453L272.541 78.6189C274.01 79.2695 275.558 80.5805 276.689 82.2957C279.418 86.4554 277.225 89.314 274.486 91.0884L269.366 94.4004C268.175 95.1693 267.054 95.9776 266.24 96.7464L264.761 94.499V94.5187ZM271.499 89.6295C269.783 86.899 267.302 84.1488 264.642 85.8739C263.035 86.9187 262.965 88.4762 263.799 89.7379C264.96 91.5024 266.825 91.8966 268.244 91.5418C268.552 91.4629 268.87 91.3348 269.128 91.1672L271.499 89.6295Z" fill="#260A2F"/>
<path d="M278.902 94.9524C280.43 94.2329 281.661 93.6119 282.842 92.9514L283.973 95.3172L281.611 96.6183L281.641 96.6775C283.387 96.7465 285.57 97.7913 286.731 100.216C287.704 102.247 287.982 105.973 282.921 108.358L274.109 112.508L272.839 109.847L281.343 105.835C283.725 104.711 285.283 102.897 284.082 100.394C283.239 98.6391 281.343 97.8603 279.636 98.1166C279.239 98.1561 278.753 98.3039 278.297 98.5208L269.425 102.7L268.155 100.039L278.912 94.9722L278.902 94.9524Z" fill="#260A2F"/>
<path d="M275.469 116.5L290.859 111.079L291.852 113.859L276.461 119.28L275.469 116.5ZM296.287 112.656C295.345 113.021 294.332 112.597 293.936 111.493C293.588 110.517 294.104 109.551 295.057 109.216C296.039 108.871 297.061 109.324 297.429 110.34C297.806 111.384 297.27 112.311 296.287 112.656Z" fill="#260A2F"/>
<path d="M285.729 123.174C281.849 124.199 280.867 127.067 281.581 129.936C282.097 131.986 282.762 133.13 283.496 134.096L281.552 135.091C280.837 134.194 279.884 132.607 279.259 130.103C278.049 125.254 280.529 121.567 285.312 120.384C290.095 119.201 294.561 121.064 295.702 125.658C296.992 130.794 292.785 133.287 289.867 134.007C289.282 134.155 288.805 134.204 288.498 134.244L285.729 123.184V123.174ZM289.897 131.05C291.743 130.626 294.392 129.147 293.588 125.924C292.864 123.026 289.857 122.425 287.803 122.691L289.897 131.05Z" fill="#260A2F"/>
<path d="M284.469 138.354C284.012 139.29 283.606 140.897 283.794 142.356C284.062 144.485 285.263 145.343 286.602 145.175C288.011 144.998 288.666 144.071 289.202 141.804C289.867 138.778 291.296 137.21 293.241 136.974C295.851 136.649 298.262 138.462 298.699 141.922C298.907 143.549 298.619 145.037 298.203 146.003L295.97 145.54C296.287 144.86 296.674 143.628 296.486 142.129C296.268 140.404 295.136 139.566 293.936 139.714C292.596 139.882 292.12 140.927 291.584 143.115C290.869 146.043 289.649 147.649 287.237 147.955C284.389 148.31 282.107 146.378 281.611 142.553C281.383 140.789 281.611 139.103 282.137 137.891L284.469 138.334V138.354Z" fill="#260A2F"/>
<path d="M284.796 158.009C286.047 158.009 286.92 158.867 286.91 160.04C286.91 161.213 286.017 162.011 284.767 162.002C283.556 162.002 282.643 161.213 282.653 159.971C282.653 158.798 283.576 158 284.796 158.009Z" fill="#260A2F"/>
</g>
<defs>
<clipPath id="clip0_1126_262">
<rect width="292" height="288" fill="white" transform="translate(13 15)"/>
</clipPath>
</defs>
</svg>
