<svg width="121" height="121" viewBox="0 0 121 121" fill="none" xmlns="http://www.w3.org/2000/svg">
<path d="M58.3935 91.4481L50.4557 118.796C49.7316 121.301 46.0229 120.521 46.3412 117.933L49.9003 89.6763C50.1643 87.5902 47.557 86.4363 46.2066 88.044L27.8823 109.781C26.2036 111.769 23.1295 109.546 24.4771 107.313L39.1598 82.9488C40.2453 81.1434 38.3314 79.0292 36.4405 79.9475L10.9086 92.3064C8.57556 93.4351 6.66572 90.1459 8.78974 88.6579L32.0602 72.4048C33.7801 71.203 32.8911 68.4872 30.7984 68.5535L2.47116 69.4108C-0.121178 69.4888 -0.534219 65.7 2.00915 65.2147L29.8448 59.8771C31.9077 59.4793 32.1872 56.635 30.2508 55.8382L4.03015 45.0391C1.63101 44.0549 2.78371 40.4201 5.31309 41.0152L32.9004 47.5247C34.939 48.0083 36.3514 45.519 34.9021 43.9998L15.3123 23.4099C13.5219 21.5226 16.0453 18.6872 18.1077 20.2605L40.6804 37.4822C42.3454 38.7541 44.6477 37.0663 43.9316 35.0795L34.364 8.26557C33.4856 5.81506 36.9386 4.24533 38.1934 6.53304L51.8444 31.4995C52.8521 33.343 55.6306 32.7429 55.7909 30.6383L57.9068 2.22712C58.1025 -0.37038 61.8925 -0.38745 62.1021 2.20822L64.4739 30.5992C64.653 32.7022 67.4369 33.2773 68.4279 31.4248L81.8535 6.33639C83.0782 4.03752 86.5546 5.57603 85.6983 8.03436L76.3726 34.9333C75.6839 36.9266 77.9919 38.5935 79.6454 37.3067L102.062 19.8824C104.11 18.2905 106.659 21.1031 104.886 23.0064L85.4821 43.772C84.0466 45.3042 85.4813 47.7806 87.5155 47.2787L115.043 40.521C117.567 39.9031 118.752 43.5179 116.362 44.5332L90.2398 55.568C88.3108 56.3822 88.6158 59.2239 90.6823 59.6031L118.565 64.6897C121.122 65.152 120.743 68.9444 118.141 68.8898L89.8069 68.2877C87.7136 68.2403 86.8491 70.964 88.5798 72.1502L111.996 88.1931C114.142 89.6618 112.262 92.9681 109.91 91.8605L84.2676 79.7321C82.3685 78.8309 80.4737 80.9717 81.5754 82.7578L96.4771 106.989C97.8447 109.21 94.7907 111.46 93.0942 109.487L74.5748 87.9162C73.21 86.3208 70.6132 87.4981 70.896 89.5817L74.7094 117.805C75.0605 120.391 71.3589 121.194 70.6029 118.705L62.4191 91.43C61.8161 89.4141 58.9689 89.427 58.384 91.4481L58.3935 91.4481Z" fill="#9FE870"/>
</svg>
