<svg width="100%" height="100%" viewBox="0 0 120 120" fill="none" xmlns="http://www.w3.org/2000/svg">
<path d="M62.0164 28.8303L70.0772 1.51871C70.8126 -0.983117 74.5177 -0.187081 74.1878 2.40003L70.5015 30.6403C70.2281 32.7252 72.8302 33.8908 74.1878 32.2893L92.6098 10.6352C94.2974 8.6546 97.3615 10.8911 96.0039 13.1181L81.2115 37.4161C80.1179 39.2167 82.0223 41.3394 83.9173 40.4297L109.505 28.1859C111.843 27.0676 113.738 30.3655 111.607 31.8439L88.2636 47.992C86.5383 49.186 87.4151 51.9058 89.5081 51.849L117.839 51.1193C120.432 51.0529 120.827 54.8436 118.282 55.3174L90.4226 60.5295C88.3579 60.9181 88.0656 63.7611 89.9983 64.5666L116.17 75.4836C118.565 76.4787 117.396 80.1082 114.869 79.5017L87.3114 72.8681C85.275 72.3753 83.8513 74.8582 85.2938 76.3839L104.791 97.0619C106.573 98.9572 104.036 101.781 101.981 100.199L79.4862 82.8754C77.8269 81.596 75.5171 83.2734 76.2242 85.2635L85.6709 112.12C86.5383 114.575 83.0783 116.129 81.8338 113.835L68.2953 88.8077C67.296 86.9598 64.5148 87.5474 64.3451 89.6512L62.1012 118.053C61.8938 120.649 58.1038 120.649 57.9058 118.053L55.662 89.6512C55.4923 87.5474 52.7111 86.9598 51.7117 88.8077L38.1733 113.835C36.9382 116.129 33.4688 114.575 34.3361 112.12L43.7829 85.2635C44.4805 83.2734 42.1801 81.596 40.5208 82.8754L18.0259 100.199C15.9706 101.781 13.4345 98.9572 15.2164 97.0619L34.7132 76.3839C36.1557 74.8582 34.7321 72.3753 32.6957 72.8681L5.13798 79.5017C2.61131 80.1082 1.44225 76.4882 3.83693 75.4836L30.0087 64.5666C31.9414 63.7611 31.6492 60.9181 29.5845 60.5295L1.72509 55.3174C-0.829868 54.8436 -0.433896 51.0529 2.1682 51.1193L30.499 51.849C32.592 51.9058 33.4688 49.186 31.7435 47.992L8.40003 31.8439C6.2599 30.3655 8.1549 27.0676 10.5024 28.1859L36.0897 40.4297C37.9847 41.3394 39.8891 39.2072 38.7955 37.4161L24.0032 13.1181C22.6456 10.8911 25.7096 8.6546 27.3972 10.6352L45.8193 32.2893C47.1769 33.8908 49.779 32.7252 49.5056 30.6403L45.8193 2.40003C45.4799 -0.187081 49.185 -0.97364 49.9298 1.51871L57.9907 28.8303C58.5846 30.8488 61.4318 30.8488 62.0258 28.8303H62.0164Z" fill="#163300"/>
</svg>