<svg width="100%" height="100%" viewBox="0 0 128 66" fill="none" xmlns="http://www.w3.org/2000/svg">
<path fill-rule="evenodd" clip-rule="evenodd" d="M6.69716 16.3557H0.434777H0.423634C0.156201 16.3557 -0.0443733 16.6011 0.000198861 16.8689C1.1145 22.6815 5.81686 25.5934 12.2575 25.5934C19.2442 25.5934 23.5009 22.1237 23.5009 17.6833C23.5009 12.317 18.3193 11.0005 13.8844 10.0299C13.7396 9.9998 13.5956 9.97008 13.4526 9.94057L13.4521 9.94047C10.2505 9.27966 7.55518 8.72335 7.55518 6.95061C7.55518 5.85725 8.69176 4.93125 11.0207 4.93125C13.5947 4.93125 15.3553 5.94651 16.0796 8.40098C16.1353 8.57948 16.2913 8.71336 16.4807 8.71336H22.6651C22.9326 8.71336 23.1443 8.45676 23.0886 8.189C21.9408 3.0123 17.5282 0 10.8981 0C4.26798 0 0.145058 3.21312 0.145058 7.69811C0.145058 12.9752 5.32657 14.2024 9.7615 15.1173L9.90927 15.1479C13.2341 15.8374 16.0907 16.4297 16.0907 18.4197C16.0907 19.6915 14.8984 20.6622 12.135 20.6622C9.56092 20.6622 7.72232 19.3234 7.10945 16.6904C7.06488 16.5007 6.89774 16.3557 6.69716 16.3557ZM25.3394 1.03748V17.2816C25.3394 22.2909 28.7603 25.5041 33.9864 25.5041C36.9393 25.5041 39.4354 24.3103 41.1068 22.3356V24.5446C41.1068 24.7789 41.2963 24.9685 41.5303 24.9685H48.4947C48.7287 24.9685 48.9181 24.7789 48.9181 24.5446V1.03748C48.9181 0.803189 48.7287 0.613525 48.4947 0.613525H41.5303C41.2963 0.613525 41.1068 0.803189 41.1068 1.03748V18.1518C40.182 19.301 38.7334 20.0038 37.0619 20.0038C34.733 20.0038 33.1507 18.732 33.1507 16.1325V1.03748C33.1507 0.803189 32.9613 0.613525 32.7273 0.613525H25.7629C25.5289 0.613525 25.3394 0.803189 25.3394 1.03748ZM66.4906 5.5115C70.2641 6.25704 74.4919 10.851 76.7041 13.2548L76.7041 13.2549L76.7065 13.2575L76.7075 13.2586L76.7091 13.2603C76.9446 13.5162 77.1572 13.7472 77.3439 13.9459C77.3662 13.5778 77.3773 13.1873 77.3773 12.7968C77.3773 4.93135 73.2433 0.0893555 66.7915 0.0893555C63.5823 0.0893555 60.9525 1.4951 59.2365 4.04997V1.03767C59.2365 0.803383 59.0471 0.613719 58.813 0.613719H51.8598C51.6258 0.613719 51.4364 0.803383 51.4364 1.03767V31.4731C51.4364 31.7074 51.6258 31.897 51.8598 31.897H58.813C59.0471 31.897 59.2365 31.7074 59.2365 31.4731V21.5325C60.9525 24.0874 63.5823 25.4931 66.7915 25.4931C72.1958 25.4931 76.0402 21.923 77.0876 16.1215C75.9733 14.8273 73.143 12.239 71.115 12.4509C69.8104 12.584 69.4748 14.2312 69.1394 15.8773C68.856 17.2684 68.5728 18.6586 67.7052 19.1338C66.6355 19.7251 64.3846 19.8478 62.4345 17.438C59.0471 13.2431 61.7548 4.55202 66.4906 5.50034V5.5115ZM79.0377 8.69105C80.0406 3.5032 84.743 0 91.1613 0C98.148 0 102.015 3.21312 102.004 9.14847V24.5558C102.004 24.7901 101.814 24.9798 101.58 24.9798H94.7494C94.5154 24.9798 94.326 24.7901 94.326 24.5558V22.5142C92.5208 24.4108 89.891 25.4149 86.8156 25.4149C81.7678 25.4149 78.514 22.7373 78.514 18.6874C78.514 18.2189 78.5586 17.7949 78.6477 17.3821C79.2023 18.252 81.106 19.6207 82.9157 20.9218C83.2878 21.1893 83.6559 21.454 84.0075 21.7109C88.799 25.2252 94.7271 22.2129 93.0779 16.3334C92.2311 13.3211 89.657 12.607 88.3087 14.1913C87.9033 14.6735 87.6445 15.4232 87.3783 16.194C86.7887 17.9018 86.1634 19.7128 83.8292 18.944C82.3806 18.4643 79.8846 16.7796 79.1603 15.9764C80.665 13.1816 84.5918 12.0533 88.6123 10.8981L88.877 10.822C92.7437 9.71746 94.326 8.83609 94.326 7.34109C94.326 6.0246 93.0891 5.0986 90.8493 5.0986C88.2642 5.0986 86.615 6.50434 86.1358 8.84724C86.0913 9.04806 85.9241 9.1931 85.7235 9.1931H79.4612C79.1937 9.1931 78.982 8.94765 79.0377 8.69105ZM92.4762 38.6358C96.2496 39.3813 100.477 43.9753 102.69 46.3791L102.69 46.3795L102.693 46.3831C102.929 46.6396 103.142 46.8711 103.33 47.0702C103.352 46.702 103.363 46.3116 103.363 45.9211C103.363 38.0556 99.2289 33.2136 92.7771 33.2136C89.5679 33.2136 86.9381 34.6194 85.2221 37.1742V34.1619C85.2221 33.9277 85.0326 33.738 84.7986 33.738H77.8454C77.6114 33.738 77.422 33.9277 77.422 34.1619V64.5974C77.422 64.8316 77.6114 65.0213 77.8454 65.0213H84.7986C85.0326 65.0213 85.2221 64.8316 85.2221 64.5974V54.6568C86.9381 57.2116 89.5679 58.6174 92.7771 58.6174C98.1814 58.6174 102.026 55.0472 103.073 49.2458C101.959 47.9516 99.1286 45.3632 97.1006 45.5752C95.796 45.7082 95.4604 47.3555 95.125 49.0016C94.8416 50.3926 94.5584 51.7829 93.6908 52.2581C92.6211 52.8494 90.3702 52.9721 88.4201 50.5623C85.0326 46.3673 87.7404 37.6763 92.4762 38.6246V38.6358ZM105.023 41.8153C106.026 36.6289 110.726 33.1262 117.142 33.1243C124.125 33.1261 127.989 36.3391 127.989 42.2727V57.6801C127.989 57.9144 127.8 58.1041 127.566 58.1041H120.735C120.501 58.1041 120.312 57.9144 120.312 57.6801V55.6384C118.506 57.5351 115.877 58.5392 112.801 58.5392C107.753 58.5392 104.5 55.8616 104.5 51.8117C104.5 51.3431 104.544 50.9192 104.633 50.5064C105.188 51.3762 107.092 52.745 108.901 54.0461C109.273 54.3136 109.642 54.5783 109.993 54.8352C114.785 58.3495 120.713 55.3372 119.064 49.4576C118.217 46.4453 115.643 45.7313 114.294 47.3156C113.889 47.7978 113.63 48.5475 113.364 49.3182C112.774 51.0261 112.149 52.8371 109.815 52.0683C108.366 51.5886 105.87 49.9039 105.146 49.1006C106.651 46.3058 110.577 45.1776 114.598 44.0223L114.863 43.9462C118.729 42.8417 120.312 41.9604 120.312 40.4654C120.312 39.1489 119.075 38.2229 116.835 38.2229C114.25 38.2229 112.601 39.6286 112.121 41.9715C112.077 42.1723 111.91 42.3174 111.709 42.3174H105.447C105.179 42.3174 104.968 42.0719 105.023 41.8153ZM51.3473 50.4504V34.2174C51.3473 33.9831 51.5367 33.7935 51.7707 33.7935H58.7351C58.9691 33.7935 59.1585 33.9831 59.1585 34.2174V49.3124C59.1585 51.9119 60.7408 53.1838 63.0697 53.1838C64.7412 53.1838 66.1898 52.4809 67.1146 51.3317V34.2174C67.1146 33.9831 67.3041 33.7935 67.5381 33.7935H74.5025C74.7365 33.7935 74.9259 33.9831 74.9259 34.2174V57.7245C74.9259 57.9588 74.7365 58.1485 74.5025 58.1485H67.5381C67.3041 58.1485 67.1146 57.9588 67.1146 57.7245V55.5155C65.4432 57.4902 62.9471 58.684 59.9942 58.684C54.7682 58.684 51.3473 55.4709 51.3473 50.4615V50.4504ZM48.9181 57.7136V27.2112V27.2001C48.9181 26.9658 48.7287 26.7761 48.4947 26.7761H41.5414C41.3074 26.7761 41.118 26.9658 41.118 27.2001V37.163C39.3574 34.6081 36.7722 33.247 33.6076 33.247C27.2003 33.247 22.9771 38.2117 22.9771 45.9544C22.9771 46.133 22.987 46.3015 22.9969 46.4701C23.0019 46.5544 23.0068 46.6387 23.0106 46.7243C23.0106 46.7243 23.0217 46.9585 23.044 47.2821C23.2179 47.0959 23.4144 46.882 23.631 46.6462C25.8281 44.2538 30.0926 39.6103 33.8862 38.8588C38.622 37.9105 41.3297 46.6015 37.9422 50.7964C35.9922 53.2063 33.7413 53.0836 32.6716 52.4923C31.804 52.0171 31.5207 50.6268 31.2373 49.2358C30.9019 47.5897 30.5663 45.9424 29.2618 45.8094C27.2449 45.5974 24.4369 48.1523 23.3003 49.4576C24.3589 55.2368 28.1809 58.6619 33.6076 58.6619C36.7722 58.6619 39.3574 57.3008 41.118 54.7459V57.7136C41.118 57.9479 41.3074 58.1375 41.5414 58.1375H48.4947C48.7287 58.1375 48.9181 57.9479 48.9181 57.7136Z" fill="#FFC091"/>
</svg>