<svg width="318" height="318" viewBox="0 0 318 318" fill="none" xmlns="http://www.w3.org/2000/svg">
<circle cx="159" cy="159" r="159" fill="#9FE870"/>
<path fill-rule="evenodd" clip-rule="evenodd" d="M175 79H143V120.373L113.745 91.1178L91.1178 113.745L120.373 143H79V175H120.373L91.1178 204.254L113.745 226.882L143 197.627V239H175V197.627L204.255 226.882L226.882 204.255L197.627 175H239V143H197.627L226.882 113.745L204.255 91.1177L175 120.373V79Z" fill="#260A2F"/>
<g clip-path="url(#clip0_1283_415)">
<path d="M151.132 34.2581L151.455 14L154.313 14.0497L160.649 24.4021C162.116 26.8102 163.259 28.9453 164.178 31.0307H164.228C164.029 28.2998 164.004 25.842 164.054 22.6643L164.203 14.1986L166.663 14.2483L166.34 34.5063L163.706 34.4567L157.444 24.0794C156.077 21.7954 154.76 19.4617 153.766 17.2522H153.667C153.766 19.8341 153.791 22.2671 153.741 25.6434L153.592 34.2829L151.132 34.2332V34.2581Z" fill="#260A2F"/>
<path d="M184.182 29.3425C183.412 34.6552 179.386 36.4427 175.907 35.9462C172.006 35.3752 169.421 32.0981 170.067 27.555C170.763 22.7387 174.317 20.3554 178.317 20.9513C182.467 21.5471 184.828 24.9482 184.182 29.3425ZM172.726 27.8529C172.279 31.0058 173.745 33.6374 176.305 34.0098C178.814 34.3821 181.026 32.2968 181.473 29.0445C181.821 26.6116 181.051 23.3346 177.945 22.8877C174.839 22.4408 173.099 25.0972 172.701 27.8281L172.726 27.8529Z" fill="#260A2F"/>
<path d="M201.8 41.4824C201.03 41.6066 199.415 41.6066 197.576 41.0107C193.401 39.6701 191.587 35.9711 192.929 31.7506C194.296 27.4805 198.197 25.3207 202.72 26.7854C204.211 27.2571 205.404 28.0515 205.975 28.6225L204.782 30.3852C204.285 29.839 203.44 29.2432 202.074 28.7963C198.893 27.7785 196.433 29.5908 195.513 32.4706C194.495 35.6731 195.911 38.3047 198.669 39.1736C200.111 39.6205 201.154 39.5708 201.974 39.4715L201.8 41.5073V41.4824Z" fill="#260A2F"/>
<path d="M212.858 23.4836L215.269 24.576L211.517 32.8431H211.566C212.262 32.3465 213.132 32.0238 214.051 31.9493C214.946 31.85 215.915 31.9493 216.834 32.3962C218.624 33.2155 220.959 35.5988 218.897 40.1667L215.319 48.0366L212.908 46.9443L216.362 39.3475C217.331 37.2124 217.356 35.0526 215.095 34.0099C213.529 33.2899 211.815 33.8361 210.771 34.9533C210.473 35.2264 210.299 35.5739 210.075 36.0208L206.447 44.0148L204.037 42.9224L212.858 23.5085V23.4836Z" fill="#260A2F"/>
<path d="M225.432 54.0196L226.203 52.3562L226.128 52.3066C224.836 52.8527 222.972 52.9272 221.208 51.8349C218.698 50.2957 218.499 47.7386 219.593 45.9511C221.432 42.9472 225.085 42.9472 229.881 45.8766L230.03 45.6284C230.651 44.6105 231.496 42.5748 228.961 41.0355C227.818 40.3404 226.377 39.9432 225.159 39.9929L225.557 38.1806C226.998 38.1309 228.737 38.6026 230.303 39.5708C234.105 41.8796 233.434 45.0325 231.918 47.54L229.085 52.1824C228.439 53.25 227.843 54.3423 227.47 55.2857L225.408 54.0444L225.432 54.0196ZM228.961 47.4903C226.526 45.9263 223.469 44.6601 222.003 47.0683C221.109 48.533 221.655 49.824 222.823 50.5191C224.438 51.5121 226.103 51.1149 227.097 50.2708C227.321 50.0971 227.52 49.8488 227.669 49.6254L228.986 47.4655L228.961 47.4903Z" fill="#260A2F"/>
<path d="M236.913 48.9054C237.832 47.7385 238.578 46.7455 239.249 45.7524L241.088 47.1924L239.721 49.1784H239.771C241.187 48.5826 243.349 48.5578 245.237 50.0473C246.828 51.2887 248.518 54.1685 245.436 58.091L240.044 64.8933L237.957 63.2548L243.15 56.6759C244.591 54.8388 245.138 52.7782 243.15 51.2142C241.783 50.1467 239.969 50.2708 238.702 51.1397C238.404 51.3135 238.081 51.6362 237.807 51.9838L232.39 58.8358L230.303 57.1972L236.888 48.8805L236.913 48.9054Z" fill="#260A2F"/>
<path d="M261.961 66.1346C261.166 66.8297 260.296 67.5993 259.029 68.8406L252.991 74.7492C250.605 77.0829 248.692 78.0263 246.778 77.9021C244.84 77.8277 243.125 76.6608 241.833 75.3451C240.615 74.1038 239.572 72.4404 239.298 71.0502L241.212 70.1068C241.46 71.2239 242.106 72.6639 243.374 73.9548C245.262 75.8912 247.673 76.3133 250.282 73.7562L251.45 72.6142L251.4 72.5645C249.86 72.9369 247.996 72.5645 246.43 70.9509C243.92 68.3689 244.293 64.3968 247.176 61.5666C250.704 58.1158 254.954 58.4634 257.29 60.8467C259.054 62.659 259.079 64.5706 258.656 65.8615L258.706 65.9112L260.371 64.4713L261.986 66.1346H261.961ZM255.948 68.1952C256.271 67.8724 256.519 67.5745 256.693 67.2518C257.464 65.8367 257.464 64.0244 256.097 62.659C254.332 60.8467 251.549 61.0453 249.139 63.4037C247.101 65.3898 246.405 68.0959 248.393 70.1316C249.536 71.2984 251.301 71.6212 252.891 70.8515C253.314 70.6529 253.736 70.3302 254.059 70.0075L255.923 68.1703L255.948 68.1952Z" fill="#260A2F"/>
<path d="M260.197 76.1397C257.389 78.3492 257.613 81.0553 259.203 83.1655C260.346 84.6799 261.315 85.375 262.235 85.9212L260.992 87.4355C260.098 86.939 258.731 85.9708 257.339 84.1337C254.631 80.5836 255.351 76.661 258.83 74.0047C262.334 71.3483 266.633 71.2986 269.217 74.675C272.1 78.4485 269.54 81.9986 267.403 83.6123C266.981 83.9351 266.608 84.1585 266.36 84.2826L260.147 76.1645L260.197 76.1397ZM266.409 81.1546C267.776 80.1615 269.416 78.0016 267.602 75.6432C265.987 73.5081 263.303 74.0791 261.713 75.0225L266.409 81.1546Z" fill="#260A2F"/>
<path d="M279.381 90.3154L273.591 95.3054C272.324 96.3977 271.156 97.4156 269.913 98.3094L269.963 98.3838C271.429 98.0363 273.044 97.7632 274.659 97.5149L282.363 96.3729L283.357 98.359L277.815 103.597C276.498 104.839 275.306 105.906 274.138 106.85L274.187 106.924C275.604 106.502 277.169 106.154 278.909 105.832L286.364 104.466L287.507 106.8L272.398 109.009L271.33 106.85L276.573 101.785C277.815 100.618 278.909 99.6003 280.3 98.508V98.4583C278.561 98.9052 276.995 99.1534 275.38 99.4017L268.149 100.345L267.08 98.1852L278.188 87.8328L279.381 90.2657V90.3154Z" fill="#260A2F"/>
<path d="M274.784 115.39L288.501 110.474L289.395 112.957L275.678 117.872L274.784 115.39ZM293.346 111.864C292.501 112.187 291.607 111.815 291.259 110.822C290.936 109.953 291.408 109.084 292.253 108.786C293.123 108.463 294.042 108.885 294.365 109.779C294.713 110.722 294.241 111.542 293.346 111.864Z" fill="#260A2F"/>
<path d="M295.856 119.635L291.83 120.777L292.874 124.426L290.936 124.972L289.892 121.323L282.338 123.483C280.598 123.979 279.754 124.749 280.151 126.164C280.35 126.834 280.574 127.306 280.748 127.579L278.884 128.249C278.536 127.827 278.163 127.083 277.89 126.09C277.542 124.898 277.666 123.855 278.163 123.036C278.71 122.093 279.878 121.472 281.518 121.025L289.147 118.84L288.525 116.68L290.464 116.134L291.085 118.294L294.44 117.326L295.806 119.61L295.856 119.635Z" fill="#260A2F"/>
<path d="M300.553 127.058L301 129.665L292.054 131.253V131.303C292.874 131.576 293.645 132.122 294.241 132.842C294.812 133.537 295.285 134.406 295.459 135.375C295.806 137.286 295.16 140.588 290.215 141.457L281.692 142.971L281.22 140.365L289.445 138.9C291.756 138.503 293.57 137.286 293.123 134.828C292.825 133.14 291.408 132.023 289.892 131.8C289.52 131.725 289.122 131.75 288.625 131.849L279.977 133.364L279.505 130.757L300.528 127.033L300.553 127.058Z" fill="#260A2F"/>
<path d="M290.066 159.456C284.699 159.704 282.189 156.079 282.015 152.579C281.841 148.656 284.574 145.479 289.172 145.28C294.042 145.057 297.024 148.11 297.223 152.132C297.422 156.303 294.514 159.257 290.066 159.456ZM289.395 147.936C286.214 148.085 283.903 150.022 284.003 152.604C284.127 155.136 286.587 156.899 289.843 156.75C292.303 156.65 295.384 155.26 295.235 152.157C295.086 149.029 292.154 147.812 289.395 147.936Z" fill="#260A2F"/>
<path d="M285.544 174.922C284.053 174.798 282.735 174.724 281.592 174.724L281.766 172.39L284.152 172.44V172.39C283.034 171.596 281.642 169.957 281.841 167.375C282.015 165.091 283.506 162.485 288.6 162.882L297.074 163.552L296.875 166.184L288.849 165.538C286.09 165.315 284.177 166.01 283.978 168.393C283.829 170.156 284.972 171.496 286.09 172.067C286.463 172.241 286.935 172.365 287.407 172.415L296.303 173.135L296.105 175.766L285.568 174.922H285.544Z" fill="#260A2F"/>
<path d="M298.764 184.927L294.663 184.182L293.968 187.906L291.98 187.534L292.675 183.81L284.947 182.395C283.183 182.072 282.065 182.395 281.816 183.835C281.692 184.505 281.692 185.027 281.717 185.374L279.754 185.126C279.629 184.58 279.629 183.76 279.828 182.743C280.052 181.526 280.623 180.632 281.443 180.136C282.338 179.54 283.68 179.515 285.345 179.813L293.148 181.253L293.57 179.043L295.558 179.416L295.16 181.625L298.59 182.246L298.788 184.902L298.764 184.927Z" fill="#260A2F"/>
<path d="M287.805 197.415C289.196 197.961 290.364 198.383 291.532 198.731L290.687 200.891L288.451 200.171V200.245C289.42 201.511 290.141 203.224 289.271 205.483C288.55 207.345 286.885 208.289 285.071 208.264V208.314C285.643 209.033 286.016 209.778 286.239 210.498C286.538 211.541 286.538 212.584 286.041 213.875C285.345 215.662 283.133 217.872 278.412 216.059L270.41 212.981L271.354 210.573L279.033 213.552C281.642 214.57 283.58 214.222 284.351 212.211C284.897 210.796 284.276 209.307 283.233 208.438C282.934 208.189 282.512 207.941 282.065 207.767L273.665 204.54L274.61 202.132L282.736 205.285C284.897 206.129 286.836 205.781 287.556 203.895C288.153 202.355 287.358 200.766 286.264 199.873C285.966 199.6 285.544 199.376 285.121 199.202L276.921 196.049L277.865 193.641L287.78 197.465L287.805 197.415Z" fill="#260A2F"/>
<path d="M268.273 231.054C263.626 228.323 263.502 223.929 265.266 220.9C267.254 217.499 271.28 216.357 275.256 218.666C279.455 221.124 280.3 225.319 278.263 228.795C276.15 232.395 272.1 233.288 268.273 231.054ZM273.988 221.024C271.23 219.411 268.248 219.783 266.931 222.017C265.664 224.202 266.732 227.032 269.565 228.671C271.702 229.912 275.007 230.433 276.598 227.727C278.188 225.021 276.374 222.415 273.988 220.999V221.024Z" fill="#260A2F"/>
<path d="M271.354 238.949L263.104 236.292C261.763 235.87 260.57 235.473 259.427 234.977L259.377 235.051C260.122 236.044 260.843 237.112 261.613 238.279L266.434 245.453L264.769 247.663L256.619 234.331L258.134 232.32L273.069 236.69L271.354 238.949Z" fill="#260A2F"/>
<path d="M255.948 245.826C253.314 243.418 250.68 244.063 248.841 245.975C247.548 247.34 246.977 248.408 246.604 249.401L244.914 248.432C245.237 247.464 246.008 245.975 247.598 244.311C250.68 241.059 254.655 241.158 257.836 244.187C261.017 247.216 261.738 251.461 258.83 254.54C255.55 257.99 251.649 256.029 249.71 254.192C249.313 253.82 249.064 253.497 248.89 253.273L255.923 245.875L255.948 245.826ZM251.972 252.752C253.164 253.919 255.575 255.21 257.613 253.05C259.451 251.114 258.482 248.557 257.29 247.141L251.972 252.727V252.752Z" fill="#260A2F"/>
<path d="M248.692 258.959C249.611 260.15 250.381 261.094 251.201 262.012L249.362 263.427L247.822 261.64L247.747 261.69C247.946 263.278 247.673 265.116 245.759 266.605C244.194 267.822 242.255 267.772 240.715 266.804H240.665C240.814 267.747 240.74 268.616 240.541 269.336C240.243 270.379 239.721 271.272 238.627 272.116C237.112 273.283 234.08 274.028 230.999 270.031L225.755 263.254L227.793 261.665L232.813 268.194C234.527 270.403 236.366 271.123 238.056 269.808C239.249 268.889 239.497 267.3 239.075 266.009C238.95 265.662 238.727 265.215 238.429 264.842L232.937 257.717L234.975 256.128L240.292 263.03C241.709 264.867 243.548 265.562 245.138 264.346C246.455 263.328 246.604 261.565 246.132 260.25C246.008 259.852 245.784 259.455 245.511 259.108L240.143 252.156L242.181 250.592L248.667 258.983L248.692 258.959Z" fill="#260A2F"/>
<path d="M224.513 271.521C222.749 268.417 220.04 268.219 217.704 269.485C216.039 270.403 215.194 271.223 214.523 272.067L213.231 270.627C213.852 269.808 215.02 268.616 217.033 267.524C220.959 265.364 224.712 266.68 226.824 270.503C228.936 274.351 228.34 278.621 224.612 280.657C220.438 282.941 217.331 279.887 216.039 277.553C215.791 277.082 215.617 276.684 215.517 276.436L224.488 271.521H224.513ZM218.624 276.908C219.394 278.397 221.307 280.334 223.892 278.919C226.228 277.628 226.078 274.922 225.383 273.209L218.599 276.908H218.624Z" fill="#260A2F"/>
<path d="M213.678 281.501C214.225 282.891 214.722 284.033 215.244 285.125L213.057 285.994L212.038 283.809H211.989C211.84 285.373 210.771 287.26 208.535 288.154C206.671 288.899 203.316 288.924 201.477 284.306L198.272 276.237L200.732 275.269L203.838 283.065C204.708 285.249 206.224 286.739 208.559 285.82C210.175 285.175 210.97 283.536 210.846 281.997C210.846 281.65 210.721 281.203 210.547 280.781L207.317 272.663L209.777 271.694L213.703 281.55L213.678 281.501Z" fill="#260A2F"/>
<path d="M196.756 296.098L195.613 292.077L191.96 293.094L191.413 291.158L195.066 290.14L192.929 282.593C192.432 280.855 191.662 280.011 190.245 280.408C189.574 280.607 189.102 280.83 188.829 281.004L188.183 279.142C188.605 278.795 189.351 278.447 190.345 278.149C191.538 277.826 192.581 277.926 193.401 278.447C194.346 278.993 194.942 280.16 195.414 281.799L197.576 289.42L199.738 288.8L200.285 290.736L198.123 291.357L199.067 294.708L196.756 296.074V296.098Z" fill="#260A2F"/>
<path d="M180.281 282.27C180.455 283.363 179.833 284.256 178.815 284.43C177.796 284.604 176.926 283.934 176.752 282.841C176.578 281.774 177.125 280.855 178.218 280.681C179.262 280.508 180.107 281.203 180.281 282.27Z" fill="#260A2F"/>
<path d="M167.533 282.494L167.856 302.752L164.998 302.801L158.338 292.672C156.798 290.314 155.58 288.204 154.586 286.143H154.536C154.81 288.874 154.934 291.332 154.984 294.485L155.133 302.95L152.673 303L152.35 282.742L155.009 282.692L161.619 292.871C163.06 295.105 164.451 297.389 165.52 299.574H165.619C165.421 296.992 165.321 294.559 165.272 291.183L165.122 282.518L167.583 282.469L167.533 282.494Z" fill="#260A2F"/>
<path d="M134.557 288.104C135.228 282.767 139.229 280.905 142.708 281.352C146.61 281.848 149.268 285.076 148.697 289.644C148.076 294.485 144.572 296.918 140.571 296.396C136.421 295.875 133.986 292.523 134.557 288.104ZM146.038 289.395C146.436 286.242 144.92 283.611 142.36 283.288C139.85 282.965 137.689 285.1 137.266 288.353C136.968 290.786 137.788 294.063 140.894 294.435C144 294.832 145.69 292.126 146.038 289.395Z" fill="#260A2F"/>
<path d="M116.715 276.262C117.486 276.113 119.101 276.088 120.965 276.659C125.164 277.926 127.053 281.6 125.785 285.845C124.493 290.14 120.617 292.35 116.069 291.009C114.578 290.562 113.361 289.792 112.764 289.246L113.932 287.459C114.429 287.98 115.299 288.576 116.666 288.998C119.871 289.966 122.307 288.104 123.176 285.2C124.145 281.972 122.654 279.365 119.896 278.546C118.455 278.124 117.386 278.199 116.566 278.298L116.715 276.262Z" fill="#260A2F"/>
<path d="M106.03 294.46L103.595 293.417L107.198 285.1H107.148C106.453 285.597 105.583 285.945 104.663 286.044C103.769 286.143 102.8 286.044 101.88 285.647C100.091 284.877 97.6807 282.519 99.6935 277.926L103.123 269.981L105.558 271.024L102.228 278.695C101.284 280.855 101.309 283.015 103.595 284.008C105.16 284.678 106.9 284.132 107.894 282.99C108.167 282.717 108.366 282.37 108.565 281.898L112.044 273.854L114.479 274.897L106.005 294.485L106.03 294.46Z" fill="#260A2F"/>
<path d="M92.9095 264.147L92.164 265.835L92.2385 265.885C93.5059 265.314 95.3696 265.215 97.1836 266.257C99.7183 267.747 99.9668 270.304 98.8982 272.116C97.1091 275.145 93.4562 275.22 88.6105 272.365L88.4614 272.613C87.865 273.656 87.045 275.691 89.6045 277.181C90.7724 277.876 92.2137 278.224 93.4313 278.174L93.0586 279.986C91.6173 280.061 89.853 279.614 88.2874 278.695C84.4606 276.436 85.057 273.283 86.5231 270.776L89.2814 266.084C89.9275 264.991 90.4991 263.899 90.847 262.956L92.9095 264.172V264.147ZM89.4802 270.751C91.9403 272.265 95.0217 273.482 96.463 271.049C97.3327 269.584 96.7612 268.293 95.5932 267.623C93.9531 266.679 92.3131 267.102 91.3191 267.946C91.0954 268.144 90.8967 268.368 90.7724 268.591L89.5051 270.776L89.4802 270.751Z" fill="#260A2F"/>
<path d="M81.5533 269.51C80.6338 270.701 79.9132 271.694 79.2671 272.712L77.4034 271.297L78.7453 269.286H78.6956C77.2791 269.907 75.1172 269.981 73.2038 268.517C71.6134 267.3 69.8491 264.445 72.8559 260.473L78.124 253.571L80.2362 255.16L75.1669 261.838C73.7505 263.7 73.2535 265.786 75.2415 267.3C76.6331 268.343 78.4471 268.194 79.6896 267.3C79.9877 267.101 80.3108 266.779 80.5841 266.431L85.8771 259.48L87.9893 261.069L81.5781 269.51H81.5533Z" fill="#260A2F"/>
<path d="M56.1818 252.702C56.9521 252.007 57.8218 251.213 59.0892 249.947L65.0282 243.939C67.3641 241.555 69.2775 240.587 71.1661 240.662C73.1043 240.711 74.8438 241.853 76.1608 243.144C77.4033 244.361 78.4718 246.024 78.77 247.39L76.8815 248.358C76.6081 247.265 75.9372 245.826 74.645 244.559C72.7316 242.648 70.3212 242.275 67.7368 244.882L66.5937 246.024L66.6434 246.074C68.1593 245.677 70.0478 245.999 71.6382 247.588C74.1977 250.12 73.8995 254.117 71.0667 256.972C67.6126 260.473 63.3384 260.2 60.9777 257.866C59.1886 256.103 59.1389 254.192 59.5365 252.876L59.4868 252.826L57.8467 254.291L56.2066 252.677L56.1818 252.702ZM62.1705 250.542C61.8475 250.865 61.599 251.163 61.425 251.511C60.6795 252.926 60.7292 254.738 62.096 256.103C63.8851 257.866 66.6683 257.618 69.029 255.235C71.0418 253.199 71.6879 250.493 69.6502 248.507C68.5072 247.365 66.7428 247.067 65.1525 247.861C64.73 248.085 64.3324 248.407 64.0094 248.705L62.1705 250.567V250.542Z" fill="#260A2F"/>
<path d="M57.7722 242.673C60.5305 240.413 60.282 237.707 58.6419 235.622C57.474 234.132 56.5048 233.437 55.5606 232.941L56.7782 231.402C57.6976 231.873 59.0644 232.817 60.4808 234.629C63.2639 238.129 62.6178 242.052 59.1638 244.783C55.7097 247.514 51.4107 247.613 48.7766 244.286C45.8195 240.562 48.3293 236.987 50.4167 235.324C50.8391 235.001 51.2119 234.778 51.4355 234.629L57.7722 242.648V242.673ZM51.4604 237.757C50.1185 238.775 48.5281 240.96 50.367 243.293C52.0319 245.379 54.6908 244.783 56.2563 243.815L51.4604 237.757Z" fill="#260A2F"/>
<path d="M38.3398 228.869L44.0303 223.78C45.2728 222.663 46.4408 221.62 47.6584 220.702L47.6087 220.627C46.1426 221 44.5273 221.297 42.937 221.571L35.2584 222.862L34.2396 220.875L39.6817 215.538C40.9738 214.272 42.1666 213.179 43.3097 212.211L43.26 212.137C41.8436 212.608 40.3029 212.956 38.5634 213.303L31.1086 214.793L29.9158 212.459L44.9995 209.977L46.0929 212.112L40.949 217.276C39.7314 218.467 38.638 219.51 37.2961 220.602V220.652C39.0356 220.18 40.5762 219.882 42.2163 219.634L49.4476 218.542L50.5409 220.677L39.6071 231.228L38.3646 228.82L38.3398 228.869Z" fill="#260A2F"/>
<path d="M24.0264 207.594C24.8464 207.246 25.7658 207.594 26.1386 208.587C26.4616 209.456 26.0392 210.324 25.1943 210.647C24.3246 210.97 23.4051 210.598 23.0572 209.679C22.7093 208.76 23.1566 207.916 24.0264 207.569V207.594ZM42.4896 203.746L28.8969 208.909L27.9526 206.427L41.5453 201.263L42.4896 203.746Z" fill="#260A2F"/>
<path d="M21.3427 199.848L25.3435 198.631L24.2501 195.007L26.1635 194.411L27.2569 198.036L34.7615 195.752C36.4761 195.23 37.321 194.436 36.8737 193.046C36.6749 192.375 36.4264 191.928 36.2525 191.63L38.1162 190.935C38.4641 191.357 38.8368 192.102 39.135 193.07C39.4829 194.237 39.4084 195.305 38.9114 196.124C38.3895 197.067 37.2216 197.713 35.5815 198.209L28.0024 200.518L28.6485 202.678L26.7102 203.274L26.0641 201.114L22.7343 202.132L21.3179 199.873L21.3427 199.848Z" fill="#260A2F"/>
<path d="M16.497 192.499L16 189.917L24.921 188.18V188.13C24.101 187.857 23.3058 187.335 22.7094 186.64C22.113 185.97 21.6409 185.101 21.4421 184.133C21.0693 182.221 21.6409 178.919 26.5859 177.951L35.0845 176.288L35.5815 178.87L27.3811 180.459C25.0701 180.905 23.3058 182.147 23.7779 184.58C24.101 186.268 25.5422 187.36 27.0581 187.559C27.4308 187.633 27.8284 187.584 28.3254 187.484L36.9482 185.796L37.4452 188.378L16.497 192.474V192.499Z" fill="#260A2F"/>
<path d="M26.412 159.952C31.7795 159.605 34.3639 163.18 34.5876 166.68C34.836 170.603 32.1523 173.83 27.5551 174.103C22.6846 174.426 19.6529 171.422 19.3796 167.4C19.1063 163.229 21.964 160.225 26.3872 159.927L26.412 159.952ZM27.3066 171.447C30.4874 171.248 32.7735 169.262 32.5996 166.68C32.4256 164.173 29.9407 162.435 26.6854 162.634C24.2253 162.782 21.1936 164.222 21.3924 167.35C21.5912 170.454 24.5483 171.621 27.3066 171.447Z" fill="#260A2F"/>
<path d="M30.6364 144.362C32.1274 144.461 33.4444 144.511 34.6123 144.486L34.4632 146.819H32.0777V146.894C33.1959 147.663 34.6372 149.277 34.4881 151.859C34.339 154.143 32.9226 156.775 27.8284 156.477L19.3298 155.955L19.5038 153.324L27.555 153.82C30.3134 153.994 32.2268 153.274 32.3759 150.866C32.4753 149.103 31.3322 147.788 30.1891 147.241C29.8164 147.068 29.3442 146.944 28.8472 146.919L19.9511 146.373L20.125 143.741L30.6861 144.386L30.6364 144.362Z" fill="#260A2F"/>
<path d="M17.2673 134.555L21.3924 135.251L22.0136 131.527L24.0016 131.849L23.3803 135.573L31.1086 136.864C32.8977 137.162 33.9911 136.815 34.2148 135.375C34.339 134.704 34.3142 134.183 34.2893 133.835L36.2773 134.034C36.4015 134.58 36.4264 135.399 36.2524 136.393C36.0536 137.609 35.5069 138.528 34.6869 139.024C33.7923 139.645 32.4753 139.694 30.7855 139.421L22.9579 138.13L22.5851 140.365L20.5972 140.042L20.9699 137.808L17.5407 137.237L17.2922 134.58L17.2673 134.555Z" fill="#260A2F"/>
<path d="M27.9775 121.944C26.5611 121.422 25.3932 121.025 24.2252 120.702L25.0204 118.518L27.2569 119.213V119.138C26.2629 117.897 25.5174 116.184 26.3374 113.925C27.0084 112.063 28.6733 111.07 30.4873 111.07V111.02C29.8909 110.325 29.4933 109.556 29.2945 108.836C28.9715 107.793 28.9715 106.775 29.4436 105.459C30.1146 103.647 32.2765 101.413 37.0228 103.126L45.074 106.055L44.1794 108.488L36.4264 105.658C33.7923 104.69 31.8789 105.087 31.1334 107.098C30.6116 108.513 31.2577 110.002 32.3262 110.847C32.6244 111.095 33.0468 111.343 33.4941 111.492L41.943 114.57L41.0484 117.003L32.848 114.024C30.6613 113.23 28.7478 113.602 28.0521 115.514C27.4805 117.078 28.3254 118.642 29.4188 119.486C29.7418 119.759 30.1394 119.983 30.5619 120.131L38.8119 123.135L37.9173 125.568L27.9527 121.944H27.9775Z" fill="#260A2F"/>
<path d="M46.888 87.9568C51.5846 90.5884 51.7834 94.9826 50.0688 98.061C48.1305 101.487 44.1297 102.728 40.1289 100.469C35.8797 98.0858 34.9602 93.915 36.9233 90.3897C38.961 86.7403 43.0115 85.7721 46.888 87.9568ZM41.3466 98.0858C44.1297 99.6499 47.1117 99.2278 48.379 96.9686C49.6215 94.7591 48.4784 91.9538 45.6207 90.3401C43.4588 89.1236 40.1289 88.6768 38.6131 91.3828C37.0973 94.0888 38.9362 96.6956 41.3466 98.061V98.0858Z" fill="#260A2F"/>
<path d="M43.6577 80.1118L51.9574 82.6192C53.2993 83.0164 54.5169 83.3888 55.66 83.8605L55.7097 83.786C54.9394 82.8178 54.2187 81.7751 53.4235 80.6083L48.4785 73.508L50.1185 71.2737L58.5177 84.4563L57.0267 86.4921L42.0176 82.3957L43.6825 80.1118H43.6577Z" fill="#260A2F"/>
<path d="M58.9898 72.9123C61.6736 75.2956 64.3076 74.6005 66.0968 72.6392C67.3641 71.249 67.9108 70.1814 68.2587 69.1636L69.9733 70.107C69.6503 71.0752 68.9296 72.5896 67.3641 74.2777C64.3325 77.5796 60.3565 77.5548 57.1261 74.6005C53.8956 71.6462 53.0756 67.4009 55.9582 64.2728C59.1638 60.7724 63.1148 62.6591 65.078 64.4714C65.4756 64.8438 65.7489 65.1666 65.9228 65.3652L59.0147 72.8875L58.9898 72.9123ZM62.8415 65.9114C61.6239 64.7445 59.2135 63.5281 57.2006 65.7127C55.3866 67.674 56.4055 70.2063 57.6231 71.6213L62.8415 65.9362V65.9114Z" fill="#260A2F"/>
<path d="M65.9974 59.6551C65.0531 58.4883 64.2579 57.5449 63.4379 56.6511L65.2519 55.2112L66.8174 56.9739L66.892 56.9242C66.6683 55.3354 66.892 53.4982 68.7805 51.9839C70.3212 50.7425 72.2595 50.7425 73.825 51.6859L73.8747 51.6363C73.7256 50.7177 73.7753 49.8736 73.9492 49.1537C74.2226 48.0862 74.7444 47.2172 75.813 46.3483C77.3039 45.1567 80.3356 44.3623 83.4915 48.2848L88.8341 54.963L86.8213 56.5767L81.6775 50.1467C79.938 47.962 78.0743 47.2917 76.4094 48.6323C75.2414 49.5757 75.0178 51.1646 75.4651 52.4555C75.5893 52.8031 75.8378 53.25 76.136 53.6224L81.752 60.6233L79.7392 62.237L74.2971 55.4347C72.8559 53.6224 70.9921 52.9521 69.4266 54.2182C68.1344 55.2609 68.035 57.0235 68.532 58.3145C68.6563 58.7117 68.9048 59.1089 69.1781 59.4565L74.6699 66.3085L72.6571 67.9222L66.0222 59.6551H65.9974Z" fill="#260A2F"/>
<path d="M89.9027 46.6958C91.7416 49.7742 94.4502 49.8984 96.7364 48.6074C98.3764 47.664 99.1965 46.8199 99.8674 45.951L101.209 47.3661C100.613 48.1854 99.4698 49.4019 97.457 50.5439C93.5805 52.7782 89.7785 51.5369 87.5917 47.7385C85.4049 43.9401 85.9268 39.6452 89.6045 37.5598C93.7296 35.2014 96.8855 38.2053 98.2273 40.5141C98.5007 40.9858 98.6498 41.383 98.7492 41.6313L89.8779 46.6958H89.9027ZM95.6927 41.2093C94.8726 39.7445 92.9592 37.8329 90.3749 39.2977C88.0639 40.6383 88.2626 43.3443 88.9833 45.0325L95.6927 41.2093Z" fill="#260A2F"/>
<path d="M100.538 36.5173C99.9667 35.127 99.4449 34.0098 98.8982 32.9423L101.06 32.0486L102.129 34.2084H102.178C102.303 32.6196 103.346 30.7328 105.558 29.8142C107.422 29.0446 110.776 28.9453 112.69 33.5381L116.044 41.5569L113.609 42.5748L110.379 34.8291C109.484 32.6692 107.919 31.2045 105.608 32.1727C103.992 32.843 103.222 34.5063 103.371 36.0456C103.371 36.3931 103.495 36.84 103.669 37.262L107.049 45.3305L104.614 46.3484L100.513 36.5669L100.538 36.5173Z" fill="#260A2F"/>
<path d="M117.262 21.6215L118.48 25.6185L122.108 24.5262L122.679 26.4626L119.051 27.5549L121.313 35.0524C121.834 36.7654 122.63 37.6095 124.021 37.1874C124.692 36.9888 125.139 36.7654 125.438 36.5668L126.133 38.4287C125.711 38.7763 124.965 39.1487 123.996 39.4466C122.828 39.7942 121.76 39.7197 120.94 39.1983C119.996 38.677 119.374 37.5102 118.877 35.8717L116.591 28.2749L114.429 28.9204L113.858 26.9839L116.02 26.3385L115.001 23.0118L117.287 21.5967L117.262 21.6215Z" fill="#260A2F"/>
<path d="M133.961 35.1269C133.762 34.0346 134.359 33.1408 135.402 32.9422C136.446 32.7436 137.291 33.3891 137.49 34.4814C137.689 35.549 137.142 36.4675 136.048 36.6661C135.005 36.8647 134.16 36.1944 133.961 35.1269Z" fill="#260A2F"/>
</g>
<defs>
<clipPath id="clip0_1283_415">
<rect width="285" height="289" fill="white" transform="translate(16 14)"/>
</clipPath>
</defs>
</svg>
